<svg xmlns="http://www.w3.org/2000/svg" viewBox="0 0 476.83 321.72"><defs><style>.cls-1,.cls-3{fill:#009245;}.cls-2{fill:#fff;}.cls-3{font-size:92px;font-family:MADETOMMY-Medium, MADE TOMMY;font-weight:500;}.cls-4{letter-spacing:0em;fill:#000;}</style></defs><title>Asset 1</title><g id="Layer_2" data-name="Layer 2"><g id="Layer_1-2" data-name="Layer 1"><rect class="cls-1" x="147.91" width="181" height="181" rx="90.5"/><path class="cls-2" d="M235.81,94.94v36.22h-15v-6.39c-2.85,4.62-9.48,7.93-17.53,7.93-9,0-21.3-4.85-21.3-17.64,0-19.77,24.38-19.77,32.31-19.77h6.52c-.12-8.64-3.2-12.43-12.43-12.43-5.45,0-10.3,2.85-12.55,4.38l-10.3-7.81a36.08,36.08,0,0,1,25-9.71C229.54,69.72,235.81,80.62,235.81,94.94Zm-15,9.82h-.95c-10.77,0-22.49-.11-22.49,8.88,0,4.5,3,8.17,10.41,8.17,7.7,0,11.72-4.38,13-6.86Z"/><path class="cls-2" d="M265.05,48.3v82.86H250V48.3Z"/><path class="cls-2" d="M294.88,123.94a8.7,8.7,0,1,1-8.64-8.76A8.71,8.71,0,0,1,294.88,123.94Z"/><text class="cls-3" transform="translate(0 298.44)">audio<tspan class="cls-4" x="238.55" y="0">Learn</tspan></text></g></g></svg>