<svg xmlns="http://www.w3.org/2000/svg" viewBox="0 0 97.86 30.47"><defs><style>.cls-1{fill:#fff;}</style></defs><title>button</title><g id="Layer_2" data-name="Layer 2"><g id="OBJECTS"><path class="cls-1" d="M86.34,14.58l-5.94-4a.8.8,0,0,0-1.25.66v8a.81.81,0,0,0,1.25.67l5.94-4A.79.79,0,0,0,86.34,14.58Z"/><path class="cls-1" d="M94.85,14.58l-5.94-4a.79.79,0,0,0-1.24.66v8a.8.8,0,0,0,1.24.67l5.94-4A.79.79,0,0,0,94.85,14.58Z"/><path class="cls-1" d="M97,10.45h0a.82.82,0,0,0-.82.82V19.2A.82.82,0,0,0,97,20h0a.82.82,0,0,0,.82-.82V11.27A.82.82,0,0,0,97,10.45Z"/><path class="cls-1" d="M11.52,14.58l5.94-4a.79.79,0,0,1,1.24.66v8a.8.8,0,0,1-1.24.67l-5.94-4A.79.79,0,0,1,11.52,14.58Z"/><path class="cls-1" d="M3,14.58l5.95-4a.79.79,0,0,1,1.24.66v8A.8.8,0,0,1,9,19.89L3,15.9A.79.79,0,0,1,3,14.58Z"/><path class="cls-1" d="M.82,10.45h0a.82.82,0,0,1,.82.82V19.2A.82.82,0,0,1,.82,20h0A.82.82,0,0,1,0,19.2V11.27A.82.82,0,0,1,.82,10.45Z"/><rect class="cls-1" x="50.75" y="9.45" width="2.27" height="11.57"/><rect class="cls-1" x="44.64" y="9.45" width="2.27" height="11.57"/><path class="cls-1" d="M48.93,30.47A15.24,15.24,0,1,1,64.17,15.24,15.25,15.25,0,0,1,48.93,30.47Zm0-29.68A14.45,14.45,0,1,0,63.37,15.24,14.46,14.46,0,0,0,48.93.79Z"/></g></g></svg>