<svg xmlns="http://www.w3.org/2000/svg" viewBox="0 0 716.21 1028.72"><defs><style>.cls-1{fill:#f66;}.cls-2{fill:#ffbd94;}.cls-3{fill:#ffa080;}.cls-4{fill:#431d73;}.cls-5{fill:#190b2b;}.cls-6{fill:#fff;}.cls-7{fill:#78a9d6;}.cls-8{fill:#32bfaa;}</style></defs><title>hand ic</title><g id="Layer_2" data-name="Layer 2"><g id="Layer_1-2" data-name="Layer 1"><path class="cls-1" d="M427.33,306.17s15.37-4.82,15.37,7.79.45,34.71-4.06,48.69S427.33,306.17,427.33,306.17Z"/><path class="cls-1" d="M95.85,267.58s-2.08-30.07,0-36.26,9.3-10.09,12-10.39,11.42.65,12.32,10.39S95.85,267.58,95.85,267.58Z"/><path class="cls-2" d="M553.53,832.93c-17-19.21-31.11-34.83-36.89-40.61-19.84-19.84-39.38-60.12-46-83s.6-61.92,0-96.78-12.63-78.15-13.23-110-3.6-92-6.61-104.6-12.62-37.27-12-52.3c.42-10.61-1-26.62-7.52-35.53-2.71-3.71-6.35-6.2-11.12-6.55-5.71-.43-12.16,2-18.12,5.27A108.76,108.76,0,0,0,381.68,324s-5.52-1.62-14.92-4.41h0c-50.68-15.08-213.84-64.45-227-79.15-12.74-14.21-23.89-13.24-31.47-9.15a27.65,27.65,0,0,0-4.6,3.13c-7.21,6-6.91,23.15-8.72,46.59-1.78,23.17,9.36,57.79,9.61,58.6v0c-27.95,1.5-39.07,6-54.1,24.94S32.11,394.06,24.3,421.41s4.51,37,4.51,37S24.3,462.29,21.29,471s-29.15,37.27-18.93,56.2S30.91,571.4,30.91,571.4a28.36,28.36,0,0,0-1.6,12.37,35.44,35.44,0,0,0,4,13.78c7.52,14.42,7.82,17.13,13.83,30.66s16.53,28.25,36.37,52.9,52.9,54.7,90.17,88.36S242.81,814.56,253,823s40.88,41.48,75.15,87.16S394,1015.94,394,1015.94s81.58,26.2,144.57,3.57,82.36-93.62,75.35-117.81C605.92,874.06,572.45,854.26,553.53,832.93ZM125.29,418.63l-19.5,8.12-11.05-7.21,3.8-17.14s17.73-3.6,21.34-6.31S125.29,418.63,125.29,418.63Z"/><path class="cls-3" d="M142.42,346.42l-37.87-6.76v0c-.25-.81-11.39-35.43-9.61-58.6,1.81-23.44,1.51-40.57,8.72-46.59a27.65,27.65,0,0,1,4.6-3.13c-7.52,19.45-3.71,50.7-.54,65.05,4.81,21.78,15.38,23.47,22.09,9s9.92-53.65,9.92-53.65Z"/><path class="cls-3" d="M345.31,875.28c7.21-21.65,34.14-19.94,52.25-54.57,15.31-29.28,18.12-84.45,12.75-78.89-5.61,5.81-22.13,49.71-50.5,60.4-28.81,10.85-53.05,11.07-80-1.54-26-12.14-59.91-27.64-82.34-43.53C184,747.63,158.71,738,140.6,721.88c-17.65-15.67-18.76-25.55-26.73-36-4.79-6.29-24.62-15.36-31.26-23.74C72,648.67,64.54,642.91,58,635.05S47.29,619,33.32,597.55c7.51,14.42,7.81,17.13,13.82,30.66s16.53,28.25,36.37,52.9,52.9,54.7,90.17,88.36S242.81,814.56,253,823s40.88,41.47,75.15,87.16S394,1015.94,394,1015.94a309.86,309.86,0,0,0,52.8,10.79C412.64,982.78,340.29,890.36,345.31,875.28Z"/><path class="cls-3" d="M553.53,832.93c-12.08,6.94-66.73-53.92-81.08-80.29-18-33.13-82.31-38.9-69.13-42.68,12.32-3.53,35.47-30.06,48.09-65.52s1.81-80,0-104,2.78-113.25,4-89.57c1,18.41,1.71,37.76,2,51.7.6,31.86,12.63,75.14,13.23,110s-6.61,73.94,0,96.78,26.15,63.12,46,83C522.42,798.1,536.5,813.72,553.53,832.93Z"/><path class="cls-3" d="M181.5,613.18c-7.22,15-27.05,61.31-31.26,75.74S134.61,722,137.61,723.79s21.4-28.63,24.95-39.45,30.36-62.75,32.76-65.75S181.5,613.18,181.5,613.18Z"/><path class="cls-3" d="M223,613.18c0,11.59-.42,60.79,2,75.22s-2,24.8,2.89,35.47c2.7,5.94,5.38-16.31,4.77-32.54s0-78.15,0-78.15Z"/><path class="cls-3" d="M417.75,606.56c.47,19.39-32.28,45.7-57.53,48.11s-133,26.44-151.07,7.2S162.26,633.62,150.84,627s-23.33-20.34-18.57-43.23-31.58-67.51-27.62-85.94,262.1-178.21,262.1-178.21h0c9.4,2.79,14.92,4.41,14.92,4.41A108.76,108.76,0,0,1,402,308.86c1,32.06,3.59,118.46,8.28,144.41C415.94,484.53,417.5,596.19,417.75,606.56Z"/><path class="cls-4" d="M182.16,621.85c-19.87-1.65-42.44-25.2-41.09-48.65L132.26,28.05c0-7.15,5.65-17,10.39-21.58S157.44,0,163.32,0a22.76,22.76,0,0,1,4.92.55L336.59,49.62a37,37,0,0,1,28.59,33.51l47.69,515.62c0,6.61-1.43,11.64-1.89,14.58-.84,5.47-4.13,10.23-8,14.38-5.11,5.46-11.12,8.59-18.58,8.59Z"/><path class="cls-5" d="M385.75,621.85c-.62,0-1.25,0-1.88-.07L192,607a38.57,38.57,0,0,1-35.49-37.84L146.67,24.46A22,22,0,0,1,153,8.56a22.25,22.25,0,0,1,15.77-6.64,22.76,22.76,0,0,1,4.92.55L351,46a37,37,0,0,1,28.59,33.51l33.22,513.41a26.86,26.86,0,0,1-7.28,20.32,27.23,27.23,0,0,1-19.78,8.59Z"/><path class="cls-6" d="M156.32,28.5l9.86,539.71a32.42,32.42,0,0,0,29.74,31.72l188.38,15.6a20.88,20.88,0,0,0,22.26-22.18L373.34,79.94a30.53,30.53,0,0,0-23.72-27.81L175.68,12.74A15.86,15.86,0,0,0,156.32,28.5Z"/><path class="cls-7" d="M406.57,593.35l-7.64-118L397.42,452,163.53,423.27,164,446.9l2.21,121.31a32.44,32.44,0,0,0,29.75,31.72l188.37,15.6A20.89,20.89,0,0,0,406.57,593.35Z"/><path class="cls-7" d="M374.28,94.68,156.74,51l-.41-22.46a15.84,15.84,0,0,1,19.35-15.76L349.61,52.12a30.56,30.56,0,0,1,23.73,27.82Z"/><path class="cls-2" d="M142.42,384.74c-1.8,3.61-27,15.63-37.87,20.44-.6.26-1.24.53-1.9.79-11.24,4.35-30.54,6.85-37.77,1.31-7.67-5.86,39.67-67.62,39.67-67.62s39.15-7.22,42.12,6.76c.16.76.3,1.56.41,2.37C149.05,362.62,144.13,381.33,142.42,384.74Z"/><path class="cls-3" d="M144.13,417.57c-6.13,7.62-11.86,14.06-11.86,14.06S46.39,449,54.15,434.11h0c7.77-14.87,35.3-15.54,30.56-17s-21-4.63-19.83-9.82,7.81-12.92,33.66-19.53c19-4.87,42.68-10.82,48.54-39,2,13.83-.84,31-4.66,35.95-7.51,9.72-27,15.63-37.87,20.44-.6.26-1.24.53-1.9.79-2.27,4.46-4.76,11-3.61,16.67a112.33,112.33,0,0,1,13.48,1.18S131.85,415,144.13,417.57Z"/><path class="cls-1" d="M89.52,356.19c-.5,3.57.9,13.52,12.33,11.72s21.31-6.17,22.54-15.33,9.22-14.78,12.9-13.55,3.71-8.39-6.1-7.49-29.34,9.92-33.85,12.92S90.22,351.23,89.52,356.19Z"/><path class="cls-2" d="M123.94,478.07c-21.19,4.06-33.37,6.91-34.72,9.77-.62,1.33-5.47,16.42-10.48,32.2C73,538.2,67,557.27,67,557.27s-48.24-17.73-47.79-20.44,9.62-78.45,9.62-78.45S40,444.05,54.15,434.11h0a61.5,61.5,0,0,1,12.53-7c10.49-4.14,23-4.77,32.36-4.48a112.33,112.33,0,0,1,13.48,1.18s19.33-8.86,31.61-6.25a13.83,13.83,0,0,1,4.87,2,10.25,10.25,0,0,1,3.81,4.58,16.09,16.09,0,0,1,1.21,6.16C154.47,455.53,145.13,474,123.94,478.07Z"/><path class="cls-3" d="M123.94,478.07c-21.19,4.06-33.37,6.91-34.72,9.77-.62,1.33-5.47,16.42-10.48,32.2-7.68,6.58-14.15,12.12-14.7,12.58-1.44,1.21-20.81,4.21-26.82,4.21s-6.31-4.21-6.31-4.21,6.31.6,18.34-4.51,20.13-35.46,18.63-35.64-4.81-.12-11.42-7-3.31-13.25,1.8-6,15.63,6.91,22.25,4.51,26.14-12,47.79-17.43,20.7-47,20.7-47l3.81,4.58a16.09,16.09,0,0,1,1.21,6.16C154.47,455.53,145.13,474,123.94,478.07Z"/><path class="cls-1" d="M104.55,423.82S88.75,430.73,89.44,437s8.2,10.82,20.22,10.52,22.06-2.53,22.6-7.42-.64-9.63,3.85-16.32,7.25-8.43,4.81-9.62S113.11,419.06,104.55,423.82Z"/><path class="cls-2" d="M30.91,571.4s15-29.76,19.54-35.17,19.72-25.7,41-29.76,48.53-13.5,56.12-14,15,7.22,17.58,18-8.79,30.65-18.45,36.51-39.19,14-40.88,19.84-.42,10.37-7.59,18.48c0,0-15.29,21.19-27.46,16.69S30.91,571.4,30.91,571.4Z"/><path class="cls-3" d="M165.13,510.53a28.73,28.73,0,0,0-6.4-12.7s-2.17,37.5-32.24,46.06-29.57,21.5-34,23.6-9.87,2.1-15.58,0,.6,3.91,6.31,5.11,10.71,5.41,9.27,9.92a85.55,85.55,0,0,1-7.88,16.35c-3,4.71-6.51,8.68-9.94,9.2-8,1.2-22.41,2.7-14.29,4.81s26.75-.3,30.66-3.31,9.84,32.46,7.17,39.07-12.89,22.55-12.89,25.25-.3,4.51,5.41,0,18.94-24.64,22-41.18-11.2-51.63-11.2-51.63c3.53-5.6,3-9.44,4.32-14.19,1.69-5.86,31.22-14,40.88-19.84S167.67,521.35,165.13,510.53Z"/><path class="cls-1" d="M117.75,500.05s-15,10-12.9,16.94,11.67,9.75,23.75,6.32,21.94-12.63,21.94-12.63,2.1-23.44-1.5-22.84S125.53,496.33,117.75,500.05Z"/><path class="cls-8" d="M397.69,148.18a2.91,2.91,0,0,1,.62-.82.72.72,0,0,1,.49-.17.84.84,0,0,1,.41.33,5.5,5.5,0,0,1,.7,1.95,36.08,36.08,0,0,1,.5,4.13c.18,2.76.22,5.53.21,8.3l-.16,16.58L400,211.64c-.12,11.05-.2,22.1-.1,33.14s.68,22,1,33.12q.86,33.19.51,66.39c0,5.53-.3,11.14-.3,16.54,0,2.71.13,5.43.41,8a16.06,16.06,0,0,0,.69,3.47c0,.13.06.14.06.13s-.12-.23-.42-.35a1.57,1.57,0,0,0-1.08-.25,1.39,1.39,0,0,0-.86.31c-.14,0-.29.31-.23.18a6,6,0,0,0,.48-1.32,55.76,55.76,0,0,0,1.37-7.8c.32-2.69.56-5.42.77-8.15.39-5.44.64-11,1-16.5Q405,305.47,407,272.38c.34-5.55.61-11,1-16.62.23-2.81.51-5.61,1-8.5.13-.73.27-1.46.47-2.23a12.42,12.42,0,0,1,.36-1.22,5.72,5.72,0,0,1,.28-.71,4.72,4.72,0,0,1,.52-.95,3.52,3.52,0,0,1,.75-.79,3.22,3.22,0,0,1,2.12-.67,3.26,3.26,0,0,1,2,.9,4.33,4.33,0,0,1,.58.75,2.72,2.72,0,0,1,.29.55l.19.46.22.71a20.59,20.59,0,0,1,.46,2.38c1.37,11.57.26,22.53,1.22,33.29.21,2.69.51,5.37,1,7.94a32.8,32.8,0,0,0,.86,3.66,8.5,8.5,0,0,0,.54,1.32c.07.17.13.14-.13-.06a2,2,0,0,0-1.06-.4,2.34,2.34,0,0,0-1.32.3c-.43.28-.37.36-.32.22a3.65,3.65,0,0,0,.24-.51,15.66,15.66,0,0,0,.5-1.62,38.3,38.3,0,0,0,.75-3.78c.4-2.61.68-5.31.89-8,.39-5.41.7-11.09,1.54-16.72.21-1.42.46-2.84.79-4.3a19.23,19.23,0,0,1,1.63-4.74l.5-.77a5.42,5.42,0,0,1,.93-.94,5.94,5.94,0,0,1,.77-.49,4.91,4.91,0,0,1,1.19-.34,4.47,4.47,0,0,1,1.36.08,4.66,4.66,0,0,1,1.05.44,5.09,5.09,0,0,1,1.76,1.86,9.31,9.31,0,0,1,.66,1.43,15.52,15.52,0,0,1,.87,5.12v1a6.55,6.55,0,0,0,.05.69,2,2,0,0,0,.09.42c0,.07.06.05-.24-.29A1.56,1.56,0,0,0,433,261a1.76,1.76,0,0,0-.59-.27,3,3,0,0,0-.7-.09,5.62,5.62,0,0,0-.6.11,1.5,1.5,0,0,0-.42.21.76.76,0,0,0-.19.12c-.13.15-.1.08-.13.13a3.3,3.3,0,0,0,.27-.8,8,8,0,0,0,.18-1.47l.14-2.18.34-4.17L432.82,236c1-11,2-22,2.87-33,.44-5.49.9-11,1.21-16.45l.21-4.08c.05-1.42.13-2.83.23-4.23.2-2.82.46-5.63.86-8.47.2-1.42.43-2.85.75-4.32a23,23,0,0,1,.62-2.31,8.91,8.91,0,0,1,.57-1.42,5.06,5.06,0,0,1,.71-1.06,3.54,3.54,0,0,1,1.06-.86,3.49,3.49,0,0,1,2.41-.34,3.68,3.68,0,0,1,2.32,1.67,6.09,6.09,0,0,1,.5,1,10.37,10.37,0,0,1,.45,1.38c.21.83.34,1.58.46,2.32.23,1.47.4,2.9.53,4.31.51,5.65.72,11.2.86,16.77.43,22.31-.75,44.42-1.93,66.53l-1.93,33.11q-.48,8.26-.85,16.51a140.09,140.09,0,0,0,.07,16.27,161.33,161.33,0,0,0,1.89,16.17c.23,1.32.49,2.64.79,3.91a20.67,20.67,0,0,0,1,3.43c.07.18.21.39.12.27a.75.75,0,0,0-.18-.17,1.7,1.7,0,0,0-.67-.35,2.38,2.38,0,0,0-1.25,0,2,2,0,0,0-.8.41c-.48.47-.26.34-.24.19a6.6,6.6,0,0,0,.22-.67,31.78,31.78,0,0,0,.69-3.7c.7-5.29.93-10.79,1.23-16.31l.79-16.54c.5-11,.78-22.05,1.19-33.12.21-5.55.48-11.08.85-16.63a76.71,76.71,0,0,1,1-8.47,27.61,27.61,0,0,1,2.77-8.57,8.31,8.31,0,0,1,.88-1.17,6.55,6.55,0,0,1,.74-.62,3.31,3.31,0,0,1,1.25-.5,2.85,2.85,0,0,1,1.58.17,3.54,3.54,0,0,1,1.1.71c.2.23.41.48.59.73l.37.66a16,16,0,0,1,1.24,4.59,62.26,62.26,0,0,1,.5,8.56c0,5.64-.42,11.13-.73,16.67s-.66,11-.83,16.51c-.08,2.75-.13,5.49-.14,8.24a32,32,0,0,0,.81,7.82,8.92,8.92,0,0,0,1.33,3.15,1.76,1.76,0,0,0,.26.26s-.2,0-.26,0a2.45,2.45,0,0,0,.55-.84,23.17,23.17,0,0,0,1.26-7.59c.15-5.47.23-11,.46-16.57s.65-11.07,1-16.59c.2-2.74.37-5.55.85-8.34a21.76,21.76,0,0,1,1.09-4.19,4.05,4.05,0,0,1,1.56-2.13,1.63,1.63,0,0,1,1.08-.16,1.81,1.81,0,0,1,.85.45,3.84,3.84,0,0,1,.78,1.11c2.12,5.71,1.17,11.29,1.44,16.77s.35,11.09.35,16.55a7.45,7.45,0,0,0,1,3.69.59.59,0,0,0,.48.29,1.07,1.07,0,0,0,.52-.46,6.12,6.12,0,0,0,.68-1.81,53.75,53.75,0,0,0,.72-8.19l.84-16.55L478.15,277a54.32,54.32,0,0,1-.49,8.32,6.58,6.58,0,0,1-.73,2.07,1.76,1.76,0,0,1-1,.84,1.35,1.35,0,0,1-1.29-.54,7.93,7.93,0,0,1-1.31-4.16c-.15-5.58-.47-11-.72-16.59-.15-2.76-.12-5.58-.22-8.28a23.12,23.12,0,0,0-1.42-7.77,1.8,1.8,0,0,0-.4-.58c-.16-.09.05,0,0,0a3.24,3.24,0,0,0-.72,1.24,20.4,20.4,0,0,0-.89,3.85c-.4,2.67-.51,5.39-.65,8.16-.28,5.52-.57,11-.68,16.53s-.08,11-.11,16.58a25.08,25.08,0,0,1-1.33,8.71,4.5,4.5,0,0,1-2,2.36,2.81,2.81,0,0,1-2.27,0,4,4,0,0,1-1.34-1,11.44,11.44,0,0,1-2.06-4.34,33.49,33.49,0,0,1-1-8.61q0-4.17,0-8.34c.09-5.56.36-11.1.61-16.62s.53-11,.5-16.46a57.77,57.77,0,0,0-.56-8,12.86,12.86,0,0,0-.91-3.38l-.13-.25a.1.1,0,0,1-.06-.07c0,.08.07.06.23.15a1.23,1.23,0,0,0,.57.06c.23-.08.21,0,.3-.11s0,0,0,.05a3.74,3.74,0,0,0-.35.5,24.6,24.6,0,0,0-2.13,7.19,75.34,75.34,0,0,0-.85,8q-.44,8.24-.62,16.51c-.26,11-.4,22.1-.75,33.16l-.58,16.6c-.22,5.52-.37,11.08-1,16.77a34,34,0,0,1-.8,4.44,10.51,10.51,0,0,1-.44,1.3,4.58,4.58,0,0,1-1.31,1.93,3.3,3.3,0,0,1-1.26.65,3.09,3.09,0,0,1-1.76,0,3.63,3.63,0,0,1-1.12-.6,5.6,5.6,0,0,1-.55-.53,6.93,6.93,0,0,1-.93-1.51,25.89,25.89,0,0,1-1.42-4.47c-.34-1.42-.62-2.81-.87-4.21a166.77,166.77,0,0,1-2-16.75,146.24,146.24,0,0,1-.15-16.87q.33-8.33.78-16.61l1.79-33.11c1.08-22,2.15-44.13,1.62-66-.15-5.48-.39-11-.9-16.34-.13-1.33-.29-2.65-.49-3.91-.11-.62-.23-1.23-.36-1.75a5.67,5.67,0,0,0-.18-.59c0-.05,0-.06,0,.06s.17.6,1.55,1a3,3,0,0,0,1.92-.26,2.18,2.18,0,0,0,.67-.53c.16-.18.16-.24.15-.19a2.83,2.83,0,0,0-.19.51c-.16.48-.3,1.08-.44,1.69-.26,1.23-.46,2.54-.65,3.85-.35,2.64-.6,5.33-.78,8-.08,1.35-.15,2.7-.2,4l-.19,4.19c-.31,5.58-.72,11.1-1.17,16.63-.93,11-2,22-3,33.06l-1.55,16.49-.35,4.09-.13,1.95a14.63,14.63,0,0,1-.35,2.63,8.32,8.32,0,0,1-1.29,3,4.89,4.89,0,0,1-.81.9c-.19.16-.39.31-.59.45a4.88,4.88,0,0,1-.89.41,3.91,3.91,0,0,1-2.31.07,5.15,5.15,0,0,1-1.07-.48,4.87,4.87,0,0,1-.69-.57,5.16,5.16,0,0,1-1.24-2.08,8,8,0,0,1-.37-1.59,11.26,11.26,0,0,1-.09-1.38v-1.11a9.56,9.56,0,0,0-.49-3,3.33,3.33,0,0,0-.19-.45c0-.09-.09,0,.4.32a1.85,1.85,0,0,0,.58.23,2,2,0,0,0,.84.05,1.57,1.57,0,0,0,.7-.2,1.27,1.27,0,0,0,.34-.2c.19-.17.15-.11.2-.2a.21.21,0,0,1-.06.1,13.59,13.59,0,0,0-1,3.1c-.29,1.23-.53,2.53-.73,3.84-.81,5.31-1.14,10.68-1.56,16.29-.23,2.81-.53,5.61-1,8.46-.23,1.43-.5,2.86-.89,4.35a22.09,22.09,0,0,1-.74,2.33,8.84,8.84,0,0,1-.67,1.35,5,5,0,0,1-1.65,1.77,3.57,3.57,0,0,1-2.29.54,3.66,3.66,0,0,1-2-.79,5.52,5.52,0,0,1-1.39-1.67,13.63,13.63,0,0,1-1.05-2.5,39.24,39.24,0,0,1-1-4.41c-.49-2.87-.78-5.7-1-8.52-.92-11.28.19-22.52-1-33-.09-.62-.2-1.23-.31-1.69l-.08-.28s-.06-.14,0,.07a1.34,1.34,0,0,0,.28.32,2.4,2.4,0,0,0,1.6.7,2.64,2.64,0,0,0,1.65-.49,2.22,2.22,0,0,0,.41-.41c.06-.07.08-.15,0,0s-.05.12-.09.25-.15.49-.23.77c-.15.57-.27,1.19-.39,1.82-.46,2.56-.75,5.26-1,8L412.5,272.7q-2,33.1-4.36,66.19c-.39,5.52-.7,11-1.18,16.58-.25,2.78-.53,5.56-.9,8.35a59.42,59.42,0,0,1-1.62,8.49,9.8,9.8,0,0,1-1.08,2.52,3.91,3.91,0,0,1-.89,1,3.19,3.19,0,0,1-1.34.5,2.9,2.9,0,0,1-1.58-.37,3.58,3.58,0,0,1-1.08-1.13,4.78,4.78,0,0,1-.39-.81,19.66,19.66,0,0,1-.92-4.64,81.4,81.4,0,0,1-.32-8.51c.06-5.66.4-11.09.51-16.62.56-22.06.61-44.17.4-66.25-.07-11-.49-22.1-.27-33.18s.46-22.13.82-33.18l1.2-33.14.64-16.57c.09-2.76.13-5.52,0-8.28a35.27,35.27,0,0,0-.38-4.11,5.39,5.39,0,0,0-.62-1.94.52.52,0,0,0-.84-.18A2.93,2.93,0,0,0,397.69,148.18Z"/><path class="cls-8" d="M333,374.59c.48,0,.76-.44.94-.82a7,7,0,0,0,.46-1.26,23.18,23.18,0,0,0,.56-2.63c.3-1.77.5-3.56.67-5.35.34-3.58.56-7.17.74-10.76.38-7.19.62-14.38.8-21.58L338,289c.49-14.44,1.15-28.8,1.82-43.22s1.4-28.78,3.06-43.27A68,68,0,0,1,345,191.42c.16-.49.33-1,.55-1.51a6.36,6.36,0,0,1,1.12-1.86l.27-.3a4.25,4.25,0,0,1,.48-.37,3.31,3.31,0,0,1,.6-.32,3.59,3.59,0,0,1,1-.22,3.29,3.29,0,0,1,1.84.46,3.91,3.91,0,0,1,.9.8,6.4,6.4,0,0,1,1.05,2.07,30.24,30.24,0,0,1,1,5.89c.68,7.42.27,14.8.15,21.89s0,14.28.29,21.44l.5,10.79c.06,1.82.14,3.65.14,5.52,0,.91,0,1.9,0,2.78a15,15,0,0,0,.08,2.21,2,2,0,0,0,.06.32c0,.06,0,0,0,0a2,2,0,0,0-.13-.25s-.15-.23-.29-.37a3.69,3.69,0,0,0-.67-.49,2.83,2.83,0,0,0-1.16-.28,3,3,0,0,0-1,.17,2.66,2.66,0,0,0-.53.29,1.06,1.06,0,0,0-.2.17c-.12.12-.09.07-.12.13a9.37,9.37,0,0,0,.65-1.61,39.48,39.48,0,0,0,1.12-4.84,93.32,93.32,0,0,0,1.1-10.43,167,167,0,0,1,3.11-21.83,50.25,50.25,0,0,1,1.52-5.58c.18-.49.36-1,.62-1.53a7.25,7.25,0,0,1,1.32-2,4.4,4.4,0,0,1,1.1-.8,3.67,3.67,0,0,1,4.11.55,3,3,0,0,1,.45.47,4.43,4.43,0,0,1,.31.41,7.87,7.87,0,0,1,.91,2.09,34.86,34.86,0,0,1,1,5.91c.19,1.86.31,3.71.41,5.52q.63,10.83.89,21.7c.17,7.23.11,14.51.14,21.64a84.56,84.56,0,0,0,.56,10.42c.22,1.7.5,3.4.86,5a20.19,20.19,0,0,0,.62,2.23,5,5,0,0,0,.31.73c.06.12,0,0-.05,0a1.23,1.23,0,0,0-.43-.33,2.15,2.15,0,0,0-1.16-.33,2.42,2.42,0,0,0-1.25.27,1.54,1.54,0,0,0-.51.38c-.08,0-.15.21-.08.07s.19-.43.3-.71a20.73,20.73,0,0,0,.63-2.26c.37-1.62.67-3.33.92-5.07.53-3.45.88-7,1.32-10.62.91-7.21,1.67-14.3,3.25-21.69a21.13,21.13,0,0,1,.92-3.08,5.5,5.5,0,0,1,.75-1.31,3.38,3.38,0,0,1,2.22-1.31,3.28,3.28,0,0,1,2.21.5,3.24,3.24,0,0,1,.9.86,4.63,4.63,0,0,1,.73,1.51c.1.34.17.64.23.92a43.65,43.65,0,0,1,.65,5.79c.24,3.67.32,7.32.41,10.91.17,7.21.34,14.42.41,21.65s0,14.56-.63,21.83a72.64,72.64,0,0,0-.15,10.43,32.6,32.6,0,0,0,.59,4.88c0,.16.08.3.11.38s.13.12-.29-.33a2.07,2.07,0,0,0-.71-.44,2.29,2.29,0,0,0-1.39-.06,2,2,0,0,0-.8.43.86.86,0,0,0-.23.24c-.13.18-.05.07,0,0a13.42,13.42,0,0,0,.61-2.15A209.89,209.89,0,0,0,384,298.61l1.85-21.51L389.26,234q1.74-21.54,3.3-43.09c.51-7.18,1-14.37,1.38-21.55a83.46,83.46,0,0,1,.86-10.8,37.06,37.06,0,0,1,2.89-10.4,36.84,36.84,0,0,0-2.41,10.47,83.76,83.76,0,0,0-.37,10.76c-.11,7.21-.39,14.41-.65,21.61q-.81,21.61-1.86,43.2t-2.47,43.17L388.51,299a214.77,214.77,0,0,1-2.26,21.79,18.49,18.49,0,0,1-.84,3.05,4.67,4.67,0,0,1-.65,1.18,4.12,4.12,0,0,1-.46.48,2.79,2.79,0,0,1-2.81.52,3,3,0,0,1-1-.62,4.11,4.11,0,0,1-1-1.49,7.79,7.79,0,0,1-.29-.91,34.81,34.81,0,0,1-.85-5.82,75.6,75.6,0,0,1-.07-11.16c.48-7.1.51-14.19.36-21.37s-.39-14.36-.63-21.55c-.13-3.61-.25-7.17-.51-10.68a41.8,41.8,0,0,0-.58-4.93l-.11-.39s-.11-.18.18.28a2.28,2.28,0,0,0,.67.62,2.79,2.79,0,0,0,1.89.41,2.55,2.55,0,0,0,1.69-.91c.21-.29.13-.22.11-.13a15.82,15.82,0,0,0-.58,2.11c-1.35,6.72-2.18,14-3,21.06-.42,3.54-.76,7.15-1.31,10.82-.26,1.83-.57,3.67-1,5.56a26.53,26.53,0,0,1-.82,2.95,10.45,10.45,0,0,1-.78,1.75,6.22,6.22,0,0,1-.85,1.17,4.89,4.89,0,0,1-1.05.79,4.05,4.05,0,0,1-1.89.45,4.31,4.31,0,0,1-1.81-.53,6.59,6.59,0,0,1-1-.76,6.8,6.8,0,0,1-.82-1.14,10.7,10.7,0,0,1-.78-1.73,26.77,26.77,0,0,1-.86-3c-.43-1.9-.74-3.75-1-5.62a90.15,90.15,0,0,1-.65-11.15c-.05-7.27,0-14.4-.2-21.57s-.42-14.33-.81-21.49c-.09-1.79-.21-3.53-.37-5.25a30.58,30.58,0,0,0-.75-4.75c-.06-.29-.22-.56-.11-.39a1.37,1.37,0,0,0,.1.14l.22.22a2.71,2.71,0,0,0,1.25.59,2.67,2.67,0,0,0,1.63-.23,2,2,0,0,0,.56-.4c.21-.25,0,0-.1.26s-.27.62-.4,1A46.44,46.44,0,0,0,363,223,160.75,160.75,0,0,0,359.89,244a97.71,97.71,0,0,1-1.21,11,42.69,42.69,0,0,1-1.36,5.67,12.61,12.61,0,0,1-1.56,3.3,4.74,4.74,0,0,1-.55.64,5.58,5.58,0,0,1-.46.39,3.66,3.66,0,0,1-.83.46,3.5,3.5,0,0,1-1.33.24,3.2,3.2,0,0,1-1.47-.37,3.09,3.09,0,0,1-.94-.7,3.19,3.19,0,0,1-.49-.63,4.65,4.65,0,0,1-.42-.86,5.85,5.85,0,0,1-.19-.64,7.94,7.94,0,0,1-.19-1,20.77,20.77,0,0,1-.1-3.19c0-.92.07-1.73.06-2.62,0-1.73,0-3.51-.08-5.28l-.38-10.8c-.23-7.24-.27-14.52-.07-21.77.09-3.65.28-7.25.34-10.78s0-7.09-.22-10.53a25.36,25.36,0,0,0-.7-4.76c-.06-.24-.25-.61-.09-.35,0,0,.23.27.41.33a2.21,2.21,0,0,0,1.21.3,1.81,1.81,0,0,0,.64-.15,3.09,3.09,0,0,0,.31-.15,1.44,1.44,0,0,0,.21-.18l.05,0c.08-.13-.12.19-.24.46s-.27.66-.39,1a62.82,62.82,0,0,0-2.08,10.13c-1.91,14.1-2.87,28.52-3.9,42.86l-2.73,43.11-2.29,43.16c-.43,7.2-.89,14.39-1.53,21.58-.34,3.59-.71,7.18-1.22,10.75-.25,1.79-.53,3.57-.91,5.34a26.52,26.52,0,0,1-.68,2.62,8,8,0,0,1-.52,1.25C333.78,374.17,333.47,374.65,333,374.59Z"/><path class="cls-8" d="M181.16,220.33l30.16,4.36,30.14,4.46,1.14.17.21,1.18a56.14,56.14,0,0,0,2.08,8.06,27.32,27.32,0,0,0,3.36,7.22,2.51,2.51,0,0,0,.82.77.54.54,0,0,0-.25,0c-.06,0,0,0,.14-.16a10,10,0,0,0,1.28-3.24c.62-2.56,1-5.54,1.65-8.34.3-1.42.62-2.85,1-4.28a25.34,25.34,0,0,1,1.52-4.43,4.5,4.5,0,0,1,1.12-1.52,2.65,2.65,0,0,1,1-.5,2.31,2.31,0,0,1,1.6.15,2.83,2.83,0,0,1,1.24,1.22,9,9,0,0,1,.81,2.68c.27,1.55.39,3,.5,4.48.38,5.87.2,11.54.56,17.18a64.41,64.41,0,0,0,.84,8.21,6.05,6.05,0,0,0,.38,1.33c-.05,0,0-.25-.8-.57a1.86,1.86,0,0,0-1.22,0,1.21,1.21,0,0,0-.49.31c-.17.18,0,0,.09-.25a24.76,24.76,0,0,0,1.12-3.7c1.24-5.41,2.06-11.08,2.87-16.7s1.58-11.35,2.49-17c.46-2.84.93-5.68,1.55-8.57.15-.73.32-1.46.54-2.23a12.5,12.5,0,0,1,.44-1.3,4.47,4.47,0,0,1,.22-.47,3.76,3.76,0,0,1,.6-.79c.12-.61,2.81-1.18,3.58,0a2.91,2.91,0,0,1,.72,1.14,7.1,7.1,0,0,1,.35,1.6l.11,1.2c0,.77.08,1.51.1,2.24.12,5.86-.07,11.57-.23,17.31s-.19,11.33,0,17c.12,2.82.29,5.64.55,8.43a65.3,65.3,0,0,0,1.16,8.12c.07.3.15.6.23.85a2.7,2.7,0,0,0,.17.45l-.14-.19a2.19,2.19,0,0,0-1-.65,2.49,2.49,0,0,0-2.23.4,1.69,1.69,0,0,0-.45.49c-.15.28,0,0,0-.25a29.36,29.36,0,0,0,.49-3.81c.22-2.74.27-5.58.37-8.45L276,185.28c.12-2.9.18-5.62.34-8.68a26,26,0,0,1,2.17-9.46,7.63,7.63,0,0,1,2.14-2.74,4.64,4.64,0,0,1,2.85-1,4.55,4.55,0,0,1,2.83,1.11,7.76,7.76,0,0,1,2,2.85,16.5,16.5,0,0,1,.84,2.48A44.8,44.8,0,0,1,290.3,179c.12,3,.06,6-.05,8.81l-.26,8.56-.43,17.15q-.78,34.31-1.19,68.62c-.12,11.43-.2,22.87-.17,34.29,0,5.7.06,11.41.2,17.09.07,2.83.17,5.68.36,8.4a19.73,19.73,0,0,0,.53,3.61c.06.21.17.45.09.3s0-.39-1.25-1a2.89,2.89,0,0,0-2.26.08,2.33,2.33,0,0,0-.8.58c-.36.46-.13.19-.1,0s.17-.47.25-.76a70.16,70.16,0,0,0,1.5-8c.39-2.78.73-5.59,1-8.41q.92-8.47,1.62-17L292,277.15c.46-5.72.94-11.43,1.48-17.15.28-2.87.56-5.73.91-8.62.18-1.45.37-2.89.63-4.41l.24-1.2.19-.72a4.24,4.24,0,0,1,.71-1.47c-.41-1.32,5.12-1.6,5.09.12a4.12,4.12,0,0,1,.52,1.11l.14.46.31.94c.44,1.26.93,2.53,1.47,3.72a16.48,16.48,0,0,0,1.73,3.08,3.2,3.2,0,0,0,.27.29,1.46,1.46,0,0,0-.88-.23,2,2,0,0,0-1,.25,1.9,1.9,0,0,0-.38.29c-.07.1,0,0,.08-.16a15.11,15.11,0,0,0,.78-3.35c.18-1.31.29-2.68.38-4l.31-4.33c.23-2.89.51-5.76.83-8.63.63-5.73,1.37-11.45,2.3-17.17.47-2.86,1-5.71,1.66-8.62.17-.73.36-1.47.58-2.23a13.88,13.88,0,0,1,1-2.54,4.82,4.82,0,0,1,.75-1.07,3.32,3.32,0,0,1,1.43-.92,3.18,3.18,0,0,1,2.83.48,3.7,3.7,0,0,1,1.23,1.64,5.87,5.87,0,0,1,.29.87,19.18,19.18,0,0,1,.44,2.52c.57,6.08.44,11.69.53,17.46l0,17.21c0,5.71-.12,11.45,0,17.07,0,1.4.09,2.79.2,4.14a16.8,16.8,0,0,0,.55,3.52c0,.16.15.24-.06,0a1.56,1.56,0,0,0-.31-.25,1.72,1.72,0,0,0-.77-.29,2.38,2.38,0,0,0-1.54.27,2,2,0,0,0-.53.43c-.23.32,0,.06,0-.11a7.72,7.72,0,0,0,.23-.79,38.32,38.32,0,0,0,.72-3.93c1.43-11.11,2-22.62,2.72-34l2-34.27c.64-11.41,1.47-22.93,2.87-34.34.69-5.72,1.49-11.42,2.55-17.12a79.52,79.52,0,0,1,2-8.6,16.43,16.43,0,0,1,.89-2.32,5.89,5.89,0,0,1,.42-.71,3,3,0,0,1,1.2-1.06,2.38,2.38,0,0,1,1.89-.07,2.58,2.58,0,0,1,1.06.82,3.27,3.27,0,0,1,.55,1,12.31,12.31,0,0,1,.53,2.56c.09.77.15,1.52.19,2.26.29,5.9,0,11.62-.16,17.33l-.51,17.16-2.07,68.64c-.79,22.88-1.53,45.76-2.55,68.63-.52,11.43-1,22.87-1.14,34.3-.1,5.72-.13,11.44.06,17.15.1,2.86.25,5.71.55,8.56a40.86,40.86,0,0,0,.67,4.23,12.25,12.25,0,0,0,.61,2c.28.63.61,1.37,1.33,1.59-.73-.2-1.09-.94-1.38-1.57a13.16,13.16,0,0,1-.67-2,40.28,40.28,0,0,1-.76-4.23c-.38-2.84-.59-5.7-.76-8.56-.33-5.72-.44-11.45-.49-17.17-.06-11.46.2-22.91.49-34.35.6-22.87.92-45.76,1.29-68.65l1.17-68.65.31-17.17c.08-5.72.31-11.45,0-17,0-.68-.1-1.36-.19-2a8.34,8.34,0,0,0-.33-1.64c0-.06-.07-.11.07.08a1.55,1.55,0,0,0,.66.48,1.76,1.76,0,0,0,1.37,0c.52-.29.42-.33.44-.31a1.33,1.33,0,0,0-.12.21,12.45,12.45,0,0,0-.62,1.7,77.29,77.29,0,0,0-1.78,8.13c-1,5.57-1.7,11.21-2.32,16.87-1.25,11.32-1.93,22.65-2.44,34.1l-1.67,34.3c-.68,11.46-1.16,22.84-2.6,34.45a45.39,45.39,0,0,1-.81,4.51c-.1.4-.21.8-.37,1.27a5.88,5.88,0,0,1-1,1.79,3.49,3.49,0,0,1-.93.79,3.14,3.14,0,0,1-3.31-.13,4.08,4.08,0,0,1-.72-.6,5.56,5.56,0,0,1-1.09-1.86,21.29,21.29,0,0,1-.88-4.92c-.12-1.51-.19-3-.23-4.43-.17-5.82-.11-11.54-.1-17.26l-.05-17.13c-.11-5.67,0-11.53-.58-16.84a14,14,0,0,0-.29-1.7l-.05-.15c.07,0-.09.11.65.75a2.69,2.69,0,0,0,2.33.38,2.25,2.25,0,0,0,1-.61c.2-.22.17-.22.16-.18a8.94,8.94,0,0,0-.52,1.47c-.18.62-.34,1.27-.5,1.93-.61,2.67-1.09,5.45-1.54,8.24-.88,5.58-1.59,11.22-2.18,16.87q-.43,4.23-.77,8.46l-.28,4.23c-.09,1.48-.2,3-.41,4.5a19.76,19.76,0,0,1-1.21,5,6.91,6.91,0,0,1-1,1.68,4.78,4.78,0,0,1-1.19,1,4,4,0,0,1-2,.53,4.63,4.63,0,0,1-2.83-1,7.91,7.91,0,0,1-1.23-1.24,20.8,20.8,0,0,1-2.54-4.34c-.65-1.41-1.2-2.81-1.71-4.25l-.37-1.09-.17-.57a1.89,1.89,0,0,0,.31.62c-.13,1.53,5.18,1.28,4.67.12.48-.74.25-.47.3-.48l-.08.32-.18.91c-.22,1.29-.39,2.69-.56,4.08-.32,2.8-.6,5.63-.85,8.46-.52,5.68-1,11.37-1.39,17.07l-2.42,34.25c-.45,5.73-.94,11.46-1.59,17.19-.32,2.87-.67,5.74-1.09,8.62a73.52,73.52,0,0,1-1.7,8.86c-.12.4-.25.82-.43,1.28a6,6,0,0,1-1.1,1.92,3.72,3.72,0,0,1-1.21.92,3.56,3.56,0,0,1-2.78.1,3.62,3.62,0,0,1-1.47-1.06,4.81,4.81,0,0,1-.5-.72,8.2,8.2,0,0,1-.68-1.7,25.09,25.09,0,0,1-.74-4.86c-.21-3-.3-5.86-.36-8.75-.14-5.76-.16-11.5-.17-17.23,0-11.47.1-22.93.25-34.38q.45-34.35,1.34-68.69l.47-17.17.28-8.6c.11-2.86.17-5.6.06-8.36a39,39,0,0,0-1-7.86,11.42,11.42,0,0,0-.52-1.59,6.11,6.11,0,0,0-.37-.69,1.57,1.57,0,0,0,1.76.06,3.74,3.74,0,0,0-.41.66c-1.9,4-1.61,10-1.9,15.67l-2.72,68.61c-.12,2.84-.2,5.73-.46,8.7a32.22,32.22,0,0,1-.68,4.68,6.31,6.31,0,0,1-.69,1.76,3.62,3.62,0,0,1-.79.9,3,3,0,0,1-4.16-.47A3.35,3.35,0,0,1,272,269a10.61,10.61,0,0,1-.95-2.76,69.2,69.2,0,0,1-1.2-8.87c-.24-2.91-.39-5.8-.49-8.7-.18-5.79-.13-11.58.11-17.35s.45-11.43.39-17c0-.7,0-1.39-.07-2l-.08-.94c0-.25-.1-.61-.07-.5a1.67,1.67,0,0,0,.46.67c.65,1,3.13.51,3.12,0a1.51,1.51,0,0,0,.29-.35c0-.07,0,0,0,0-.06.15-.16.45-.25.74-.17.6-.33,1.26-.49,1.93-.6,2.7-1.09,5.51-1.57,8.3-.95,5.62-1.79,11.25-2.63,16.92s-1.74,11.35-3.11,17.09a26.54,26.54,0,0,1-1.43,4.49,5.27,5.27,0,0,1-1,1.56,3.16,3.16,0,0,1-.93.61,2.66,2.66,0,0,1-1.75.05,2.92,2.92,0,0,1-1.55-1.3,8.86,8.86,0,0,1-.91-2.75A67.24,67.24,0,0,1,257,250c-.31-5.79-.11-11.59-.37-17.15a39.49,39.49,0,0,0-.38-4.05,7,7,0,0,0-.34-1.44s0,.13.53.44a1.67,1.67,0,0,0,1.08.1,1.4,1.4,0,0,0,.52-.25c.21-.22,0,0-.1.23a21.59,21.59,0,0,0-1.29,3.66c-.37,1.34-.7,2.7-1,4.08-.67,2.77-1,5.47-1.82,8.46a12.63,12.63,0,0,1-2.06,4.6,4,4,0,0,1-1.53,1.17,3.13,3.13,0,0,1-2.33,0,5.64,5.64,0,0,1-2.41-2,30.15,30.15,0,0,1-3.78-8.31A59.39,59.39,0,0,1,239.6,231l1.34,1.35-30-5.22-30-5.33Z"/><path class="cls-8" d="M559.72,362.18a2.69,2.69,0,0,1-.63.83.57.57,0,0,1-.91-.19,5.77,5.77,0,0,1-.69-2,36.77,36.77,0,0,1-.5-4.17c-.17-2.8-.21-5.6-.2-8.4l.16-16.78.48-33.55c.13-11.18.2-22.36.09-33.52s-.74-22.3-1-33.52q-.82-33.59-.43-67.17c0-5.63.39-11.23.22-16.68a50,50,0,0,0-.75-7.94,6.9,6.9,0,0,0-.36-1.23s0,.07.14.17a1.93,1.93,0,0,0,.54.33,2,2,0,0,0,1.06.07,1.84,1.84,0,0,0,.65-.31.49.49,0,0,0,.16-.16s0,0,0,0a1.39,1.39,0,0,0-.1.21,19.88,19.88,0,0,0-.94,3.55c-1.85,10.67-2,22-2.7,33.11q-1.8,33.5-3.77,67c-.37,5.56-.54,11.15-1.19,16.89-.16,1.43-.35,2.86-.61,4.33-.13.73-.28,1.47-.48,2.26-.1.39-.21.79-.36,1.23a6.56,6.56,0,0,1-.85,1.71,4.32,4.32,0,0,1-.89.85,3.4,3.4,0,0,1-2.42.46,3.69,3.69,0,0,1-1.68-1,6.56,6.56,0,0,1-.54-.76,8.39,8.39,0,0,1-.4-.93l-.21-.71a22.28,22.28,0,0,1-.44-2.39c-.21-1.5-.33-2.94-.42-4.38-.37-5.71-.34-11.39-.34-16.94a141,141,0,0,0-.9-16.39,39.75,39.75,0,0,0-1.54-7.56,6.75,6.75,0,0,0-.41-.92s0,0,.06,0a1.76,1.76,0,0,0,.31.24,3.11,3.11,0,0,0,.49.18,1.88,1.88,0,0,0,.85,0,2.83,2.83,0,0,0,.61-.16c.16,0,.4-.28.4-.25s.18-.18.17-.17a3.17,3.17,0,0,0-.19.4,6,6,0,0,0-.27.71,17.59,17.59,0,0,0-.48,1.75,111.91,111.91,0,0,0-1.84,16.18,103.9,103.9,0,0,1-2.27,17.19,19.52,19.52,0,0,1-.77,2.36,11.18,11.18,0,0,1-.67,1.35,6.06,6.06,0,0,1-.58.82l-.43.45a3.55,3.55,0,0,1-.68.52,3.37,3.37,0,0,1-1,.45,3.78,3.78,0,0,1-2.52-.17,3.71,3.71,0,0,1-.87-.5,5.59,5.59,0,0,1-1.48-1.81,11.57,11.57,0,0,1-1-2.72A18.26,18.26,0,0,1,524,252c0-.43,0-.87,0-1.33v-.85a3.94,3.94,0,0,0-.15-1,1.47,1.47,0,0,0,.56.56,2.26,2.26,0,0,0,1.31.35,4.55,4.55,0,0,0,.59-.12,1.56,1.56,0,0,0,.41-.2c.56-.44.19-.21.13.14a6.37,6.37,0,0,0-.25,1.36l-.29,4.14-.72,8.39-1.51,16.71c-1,11.13-2,22.26-2.82,33.38-.43,5.6-.79,11-1,16.67-.16,2.86-.4,5.7-.74,8.56-.18,1.44-.38,2.87-.64,4.32a27.93,27.93,0,0,1-1.15,4.64,6.31,6.31,0,0,1-.91,1.73,4.08,4.08,0,0,1-.73.75,3.49,3.49,0,0,1-4.28.08,3.81,3.81,0,0,1-.84-.86,6.09,6.09,0,0,1-.89-1.85c-.14-.45-.25-.88-.34-1.27a44,44,0,0,1-.7-4.49c-.32-2.88-.5-5.71-.66-8.54-.32-5.64-.41-11.27-.47-16.92-.05-22.52,1.22-44.88,2.47-67.23l1.94-33.48c.28-5.56.58-11.16.61-16.62a144.08,144.08,0,0,0-1.06-16.41c-.32-2.73-.7-5.45-1.18-8.13-.24-1.33-.5-2.66-.82-3.94a16.39,16.39,0,0,0-1.06-3.26s-.06-.09,0,0a1,1,0,0,0,.16.17,2.2,2.2,0,0,0,.6.33,2.29,2.29,0,0,0,1.26.09,2.1,2.1,0,0,0,.89-.43,1.12,1.12,0,0,0,.27-.26s.05-.08.06-.09a6.55,6.55,0,0,0-.39,1.23,37.27,37.27,0,0,0-.64,3.83c-.33,2.67-.53,5.43-.71,8.18-.64,11.11-1.17,22.3-1.59,33.45s-.65,22.34-1.25,33.56c-.32,5.56-.51,11.3-1.77,17a34.12,34.12,0,0,1-1.23,4.31,15.12,15.12,0,0,1-1,2.21,5.65,5.65,0,0,1-2.3,2.43,3.18,3.18,0,0,1-1.48.33,3.28,3.28,0,0,1-1.49-.48,3.18,3.18,0,0,1-.86-.77,3.88,3.88,0,0,1-.51-.72,10.29,10.29,0,0,1-1-2.47,29.24,29.24,0,0,1-.71-4.46,122.77,122.77,0,0,1,.09-17.06l.95-16.74c.25-5.53.45-11.19.33-16.6a22.24,22.24,0,0,0-1.5-7.55,3.79,3.79,0,0,0-.76-1.17c-.11-.12-.09,0,.07,0s.29-.1.2,0a3.69,3.69,0,0,0-.64,1.15,13,13,0,0,0-.5,1.79,44.68,44.68,0,0,0-.65,8.06l-.21,8.4c-.14,5.6-.45,11.22-.85,16.8L491,250.1a42,42,0,0,1-1.37,8.5,9.14,9.14,0,0,1-1,2.18,2.7,2.7,0,0,1-1.28,1.09,1.66,1.66,0,0,1-1.2,0,2.16,2.16,0,0,1-.77-.56,6.18,6.18,0,0,1-1.11-2.25,15.26,15.26,0,0,1-.49-2.16,48,48,0,0,1-.46-8.52c.05-5.56-.25-11.14-.34-16.75-.11-2.78.3-5.73-.82-8a1,1,0,0,0-.23-.32.5.5,0,0,0-.2-.18c-.09,0-.14-.06-.32.14a3.94,3.94,0,0,0-.76,1.62,19.19,19.19,0,0,0-.56,4l-1.71,33.51.74-33.56a19,19,0,0,1,.5-4.26,4.79,4.79,0,0,1,1-2.13,1.66,1.66,0,0,1,.64-.45,1.23,1.23,0,0,1,.89,0,1.47,1.47,0,0,1,.63.44,1.82,1.82,0,0,1,.38.52c1.46,2.86,1,5.79,1.17,8.52.2,5.58.63,11.15.7,16.79a46.2,46.2,0,0,0,.61,8.19,8.77,8.77,0,0,0,1.2,3.41c.17.12,0,0-.12,0s.11-.08.23-.31a7,7,0,0,0,.67-1.67,39.15,39.15,0,0,0,1.11-8.05l.43-8.37c.28-5.58.47-11.13.49-16.71l0-8.38a45.75,45.75,0,0,1,.54-8.65,15.33,15.33,0,0,1,.58-2.26,6.23,6.23,0,0,1,1.46-2.44,2.89,2.89,0,0,1,2.07-.83,3.11,3.11,0,0,1,1.94.79,6.64,6.64,0,0,1,1.62,2.24,24.94,24.94,0,0,1,1.92,8.78c.22,5.77.07,11.29-.1,16.94L499,247.83a120.46,120.46,0,0,0,.11,16.47,24.26,24.26,0,0,0,.65,3.8,6.91,6.91,0,0,0,.55,1.42c.05.11.08.13.1.14s0,0-.1-.07a1.31,1.31,0,0,0-1-.07c-.24.18.21-.25.41-.69a11.24,11.24,0,0,0,.7-1.63,30.4,30.4,0,0,0,1-3.76c1.09-5.24,1.22-10.74,1.46-16.34.45-11.12.52-22.3.81-33.5s.65-22.37,1.14-33.61c.15-2.82.35-5.65.69-8.53a39.79,39.79,0,0,1,.73-4.44,10.22,10.22,0,0,1,1-2.72c.09-.16.23-.35.35-.52a4.19,4.19,0,0,1,.63-.65,3.32,3.32,0,0,1,1.36-.64,3.09,3.09,0,0,1,1.77.12,3.66,3.66,0,0,1,1,.6,4.39,4.39,0,0,1,.53.54,5.66,5.66,0,0,1,.57.83,20,20,0,0,1,1.64,4.65c.36,1.44.65,2.86.91,4.27.52,2.83.92,5.65,1.26,8.47a146.14,146.14,0,0,1,1.17,17c0,5.74-.28,11.31-.54,16.92l-1.79,33.52c-1.16,22.31-2.32,44.65-2.18,66.87.08,5.53.2,11.09.54,16.62.16,2.75.36,5.5.67,8.17a35.26,35.26,0,0,0,.6,3.8c.06.29.13.54.19.75s.19.39,0,0a2.76,2.76,0,0,0-.49-.47,2.83,2.83,0,0,0-1.78-.53,2.66,2.66,0,0,0-1.54.57,2.16,2.16,0,0,0-.38.37c-.18.26,0,0,0-.13a23.24,23.24,0,0,0,.83-3.52c.22-1.29.4-2.63.56-4,.32-2.69.53-5.42.68-8.15.21-5.5.54-11.27,1-16.81.89-11.19,1.93-22.34,3-33.48l1.58-16.7.75-8.32.32-4.22a12.55,12.55,0,0,1,.55-2.74,8.39,8.39,0,0,1,.71-1.55,5.34,5.34,0,0,1,1.66-1.78,4.81,4.81,0,0,1,.88-.43,3.29,3.29,0,0,1,1.1-.22,3.93,3.93,0,0,1,2.3.6,4.78,4.78,0,0,1,1.78,2.22,9,9,0,0,1,.63,3.12v1.25a6.54,6.54,0,0,0,0,.76,9.38,9.38,0,0,0,.23,1.59,5.8,5.8,0,0,0,.41,1.23c0,.08.15.16-.21-.16a2.38,2.38,0,0,0-.42-.24,2.93,2.93,0,0,0-.72-.17,3.13,3.13,0,0,0-.79.07,4.07,4.07,0,0,0-.53.23,1.29,1.29,0,0,0-.26.21.24.24,0,0,0-.08.06c-.05.1,0,0,0,0a3.2,3.2,0,0,0,.25-.52,13.42,13.42,0,0,0,.53-1.62,100,100,0,0,0,2.15-16,116.53,116.53,0,0,1,2.05-17.11,21.27,21.27,0,0,1,.65-2.3,9.45,9.45,0,0,1,.48-1.24,8.11,8.11,0,0,1,.81-1.44,6.13,6.13,0,0,1,.87-.93,3.14,3.14,0,0,1,.85-.52,3.09,3.09,0,0,1,1.09-.33,4.2,4.2,0,0,1,1.37.08,3.15,3.15,0,0,1,1,.41,3.75,3.75,0,0,1,.73.52l.42.44a8.7,8.7,0,0,1,1.49,2.78,43.72,43.72,0,0,1,1.82,8.85,146.83,146.83,0,0,1,.87,17.1c0,5.63-.07,11.14.25,16.59.08,1.35.19,2.7.36,4a16.25,16.25,0,0,0,.31,1.74l.08.3s0,.05,0,0a1.27,1.27,0,0,0-.24-.33,2.46,2.46,0,0,0-1.25-.7,2.65,2.65,0,0,0-1.94.33,2.08,2.08,0,0,0-.52.48c-.15.21,0,0,0-.19a6.6,6.6,0,0,0,.23-.77c.15-.57.28-1.2.4-1.84.23-1.29.41-2.63.58-4,.63-5.37.83-11,1.22-16.56q2.07-33.5,4.41-67c.87-11.16,1.1-22.31,3.21-33.69a22.31,22.31,0,0,1,1.31-4.51,4.67,4.67,0,0,1,.38-.72,3.53,3.53,0,0,1,.27-.4,5.39,5.39,0,0,1,.53-.54,2.6,2.6,0,0,1,1.09-.56,2.46,2.46,0,0,1,1.57.1,2.31,2.31,0,0,1,.95.63,2.34,2.34,0,0,1,.47.58,8.49,8.49,0,0,1,1,2.72,53.38,53.38,0,0,1,.72,8.75c.1,5.74-.32,11.31-.43,16.87-.61,22.31-.68,44.68-.48,67,0,11.15.49,22.35.3,33.58s-.44,22.38-.81,33.56l-1.2,33.54-.65,16.76c-.09,2.79-.13,5.59,0,8.38a36.33,36.33,0,0,0,.38,4.16,5.82,5.82,0,0,0,.62,2,.53.53,0,0,0,.84.2A2.7,2.7,0,0,0,559.72,362.18Z"/><path class="cls-8" d="M624.42,135.78c-.48-.05-.76.44-.94.81a7,7,0,0,0-.46,1.26,23.69,23.69,0,0,0-.57,2.63c-.29,1.77-.49,3.56-.67,5.35-.34,3.58-.55,7.17-.73,10.77-.38,7.18-.62,14.38-.8,21.58l-.85,43.21c-.5,14.44-1.16,28.8-1.83,43.22s-1.4,28.79-3.06,43.28A67.13,67.13,0,0,1,612.45,319c-.16.48-.33,1-.55,1.5a6.87,6.87,0,0,1-1.12,1.87l-.27.29a4,4,0,0,1-.48.37,2.91,2.91,0,0,1-1.57.54,3.25,3.25,0,0,1-1.85-.46,4,4,0,0,1-.89-.79,6.39,6.39,0,0,1-1.06-2.08,30.82,30.82,0,0,1-1-5.89c-.68-7.42-.27-14.8-.15-21.88s0-14.29-.29-21.44l-.5-10.8c-.07-1.82-.14-3.65-.14-5.51,0-.92,0-1.9,0-2.79a13.93,13.93,0,0,0-.07-2.21c0-.13,0-.27-.06-.31s0,0,0,0a1.21,1.21,0,0,0,.13.26s.15.22.29.36a2.64,2.64,0,0,0,1.82.78,2.84,2.84,0,0,0,1-.18,2.14,2.14,0,0,0,.54-.29,1,1,0,0,0,.2-.16c.11-.12.09-.08.12-.13a8.29,8.29,0,0,0-.65,1.61,39.32,39.32,0,0,0-1.12,4.83,93.5,93.5,0,0,0-1.1,10.44,166.6,166.6,0,0,1-3.11,21.82,52.53,52.53,0,0,1-1.52,5.58c-.18.49-.36,1-.62,1.53a7,7,0,0,1-1.33,2,3.92,3.92,0,0,1-1.09.8,3.65,3.65,0,0,1-2.28.35,3.76,3.76,0,0,1-1.83-.9,2.65,2.65,0,0,1-.45-.46,4.46,4.46,0,0,1-.31-.42,7.7,7.7,0,0,1-.92-2.09,35.86,35.86,0,0,1-1-5.9c-.19-1.86-.31-3.72-.41-5.53q-.63-10.83-.9-21.7c-.16-7.23-.1-14.51-.13-21.64a82.46,82.46,0,0,0-.57-10.41c-.21-1.71-.49-3.41-.85-5a18.16,18.16,0,0,0-.63-2.23,3.72,3.72,0,0,0-.31-.73c-.05-.12,0,0,.06,0a1.45,1.45,0,0,0,.42.34,2.21,2.21,0,0,0,1.17.32,2.32,2.32,0,0,0,1.25-.27,1.54,1.54,0,0,0,.51-.38c.08,0,.14-.2.08-.06a5.32,5.32,0,0,0-.3.71,20.52,20.52,0,0,0-.63,2.25c-.37,1.62-.67,3.34-.93,5.07-.52,3.46-.88,7-1.31,10.63-.91,7.21-1.67,14.3-3.26,21.68a18.7,18.7,0,0,1-.92,3.09,5.19,5.19,0,0,1-.74,1.3,3.29,3.29,0,0,1-.63.63,3.35,3.35,0,0,1-1.59.68,3.23,3.23,0,0,1-2.21-.5,3.64,3.64,0,0,1-.91-.85,4.78,4.78,0,0,1-.72-1.52,6.74,6.74,0,0,1-.23-.91,45.9,45.9,0,0,1-.66-5.79c-.23-3.68-.31-7.33-.4-10.92-.17-7.21-.34-14.41-.41-21.65s0-14.56.62-21.83a71.08,71.08,0,0,0,.15-10.42,31.26,31.26,0,0,0-.58-4.88c0-.16-.08-.3-.11-.38s-.13-.12.28.33a2.33,2.33,0,0,0,.72.43,2.21,2.21,0,0,0,1.39.06,1.94,1.94,0,0,0,.8-.42,1.67,1.67,0,0,0,.23-.24c.13-.18,0-.08,0,0a14.16,14.16,0,0,0-.6,2.14,209.73,209.73,0,0,0-2.62,21.14l-1.86,21.51-3.37,43.07q-1.74,21.54-3.31,43.09c-.5,7.18-1,14.37-1.37,21.56a87.15,87.15,0,0,1-.86,10.79c-.62,3.55-1.27,7.17-2.89,10.4a36.77,36.77,0,0,0,2.41-10.46A85.67,85.67,0,0,0,562.5,341c.11-7.22.39-14.42.65-21.62q.81-21.6,1.86-43.2T567.48,233l1.42-21.59a214.58,214.58,0,0,1,2.26-21.78,19.49,19.49,0,0,1,.83-3.06,5.59,5.59,0,0,1,.66-1.18c.12-.14.3-.33.46-.48a2.76,2.76,0,0,1,1.09-.58,2.68,2.68,0,0,1,1.72.06,2.81,2.81,0,0,1,1,.63,3.75,3.75,0,0,1,1,1.49,6.4,6.4,0,0,1,.3.91,34.7,34.7,0,0,1,.85,5.81,77.12,77.12,0,0,1,.07,11.17c-.48,7.09-.51,14.19-.36,21.36s.38,14.36.63,21.56c.13,3.61.24,7.16.51,10.67a41.73,41.73,0,0,0,.58,4.94l.1.39s.12.18-.18-.29a2.35,2.35,0,0,0-.66-.62,2.82,2.82,0,0,0-3.19.12,2.14,2.14,0,0,0-.39.39c-.22.28-.13.21-.11.12a17.81,17.81,0,0,0,.58-2.1c1.35-6.73,2.17-14,3-21.06.42-3.55.76-7.16,1.31-10.83.26-1.83.57-3.66,1-5.55a23.55,23.55,0,0,1,.82-2.95,10.88,10.88,0,0,1,.78-1.76,6.09,6.09,0,0,1,.85-1.17,5.21,5.21,0,0,1,1-.78,4.14,4.14,0,0,1,1.89-.46,4.23,4.23,0,0,1,1.8.54,4.8,4.8,0,0,1,.95.76,6.37,6.37,0,0,1,.83,1.13,10.39,10.39,0,0,1,.78,1.74,24,24,0,0,1,.85,3c.43,1.9.74,3.76,1,5.62a92.26,92.26,0,0,1,.65,11.15c.05,7.28,0,14.41.2,21.58s.42,14.32.81,21.48c.09,1.79.21,3.53.37,5.25a31.7,31.7,0,0,0,.74,4.75c.07.3.22.57.12.4a1.26,1.26,0,0,0-.1-.15l-.22-.22a2.68,2.68,0,0,0-2.89-.35,2,2,0,0,0-.55.39c-.22.25,0,0,.1-.26s.26-.62.39-1a43.46,43.46,0,0,0,1.33-4.84,158.8,158.8,0,0,0,3-20.92,102.37,102.37,0,0,1,1.21-11,43.28,43.28,0,0,1,1.37-5.68,12.86,12.86,0,0,1,1.55-3.3,6.88,6.88,0,0,1,.56-.64,5.58,5.58,0,0,1,.46-.39,3.68,3.68,0,0,1,.83-.45,3.15,3.15,0,0,1,1.33-.24,3.2,3.2,0,0,1,1.47.37,3.15,3.15,0,0,1,.93.69,3.24,3.24,0,0,1,.5.63,4.4,4.4,0,0,1,.42.87,5.27,5.27,0,0,1,.19.64,10.21,10.21,0,0,1,.19,1,19.37,19.37,0,0,1,.09,3.18c0,.92-.06,1.73-.05,2.62,0,1.74,0,3.51.08,5.29l.38,10.79c.23,7.25.27,14.52.07,21.78-.09,3.64-.29,7.25-.34,10.77s0,7.09.22,10.53a26.12,26.12,0,0,0,.69,4.76c.06.24.26.61.1.36,0,0-.24-.28-.41-.34a2.13,2.13,0,0,0-1.21-.29,1.58,1.58,0,0,0-.64.15,1.28,1.28,0,0,0-.31.15,1,1,0,0,0-.21.17l-.05,0a4.12,4.12,0,0,0,.24-.46c.13-.3.26-.65.39-1a63.79,63.79,0,0,0,2.08-10.12c1.91-14.11,2.87-28.53,3.9-42.87l2.73-43.1,2.29-43.17c.43-7.19.89-14.39,1.53-21.57.34-3.59.71-7.18,1.22-10.76.25-1.78.53-3.57.91-5.33a23.6,23.6,0,0,1,.68-2.63,8.46,8.46,0,0,1,.52-1.25C623.63,136.19,623.94,135.71,624.42,135.78Z"/><path class="cls-8" d="M716.21,279.6a60.43,60.43,0,0,0-2.19-8.28,28.26,28.26,0,0,0-3.66-7.65,3.62,3.62,0,0,0-1.51-1.26,1.35,1.35,0,0,0-1.55.61,11.06,11.06,0,0,0-1.55,3.82c-.64,2.74-1,5.61-1.62,8.41a42.17,42.17,0,0,1-2.36,8.38,3.17,3.17,0,0,1-.77,1.07,1,1,0,0,1-1.11.16,1.43,1.43,0,0,1-.61-.63,7.81,7.81,0,0,1-.67-2.25,42.78,42.78,0,0,1-.48-4.33c-.39-5.77-.26-11.48-.65-17.16a63.71,63.71,0,0,0-.92-8.39,6.6,6.6,0,0,0-.54-1.72c0-.08-.1,0,.16.07a.59.59,0,0,0,.47-.06,3,3,0,0,0-.35.62,24.75,24.75,0,0,0-1.17,3.93c-1.23,5.5-2,11.18-2.79,16.82s-1.52,11.36-2.39,17c-.44,2.84-.89,5.67-1.48,8.53-.16.72-.32,1.44-.52,2.18a12,12,0,0,1-.4,1.2,2.83,2.83,0,0,1-.65,1c-.09.44-2,.66-2.32-.06a2.22,2.22,0,0,1-.48-.78,10.79,10.79,0,0,1-.4-2.54c-.06-.75-.09-1.48-.11-2.21-.17-5.81,0-11.52.18-17.26s.16-11.36-.08-17a106.85,106.85,0,0,0-1.76-16.7,7.33,7.33,0,0,0-.48-1.5l.06.08a1.38,1.38,0,0,0,.7.43,1.72,1.72,0,0,0,1.51-.29,1.14,1.14,0,0,0,.27-.29c0-.11-.09.23-.13.47a28.14,28.14,0,0,0-.51,3.94c-.21,2.77-.26,5.62-.35,8.49l-2.07,68.63c-.1,2.9-.14,5.63-.29,8.66a25.76,25.76,0,0,1-2.08,9.31,7.29,7.29,0,0,1-2,2.61,4,4,0,0,1-5.15-.14,7.24,7.24,0,0,1-1.9-2.71,16.24,16.24,0,0,1-.84-2.42,45.17,45.17,0,0,1-1.19-9.05c-.15-2.95-.09-5.92,0-8.79l.25-8.56.41-17.15q.75-34.31,1.12-68.61c.1-11.44.19-22.88.14-34.29,0-5.71-.07-11.42-.23-17.1,0-2.83-.2-5.67-.37-8.38a24.52,24.52,0,0,0-.53-3.67c-.06-.21-.17-.45-.1-.32s0,.37,1.2,1a2.84,2.84,0,0,0,2.17-.1,2.24,2.24,0,0,0,.74-.55c.33-.42.1-.15.07,0a7.82,7.82,0,0,0-.25.77,69.24,69.24,0,0,0-1.49,8c-.4,2.78-.73,5.6-1,8.42-.61,5.64-1.11,11.32-1.56,17l-2.42,34.23q-.66,8.58-1.47,17.16c-.27,2.86-.56,5.72-.91,8.61-.18,1.46-.36,2.89-.63,4.42l-.24,1.21-.19.73a4.34,4.34,0,0,1-.72,1.49c.49,1.33-5.25,1.73-5.29-.1a3.71,3.71,0,0,1-.53-1.15l-.14-.46-.31-.94c-.44-1.26-.94-2.52-1.47-3.71a16,16,0,0,0-1.72-3,1.19,1.19,0,0,0-.17-.19c0-.07-.08-.09-.07-.07s.08.07.18.09a2.8,2.8,0,0,0,.32.11l.46.05a2,2,0,0,0,1-.28,1.42,1.42,0,0,0,.4-.3c.09-.12,0,0-.05.11a15.3,15.3,0,0,0-.76,3.33c-.19,1.29-.29,2.67-.39,4l-.31,4.33c-.23,2.89-.51,5.76-.82,8.63-.63,5.74-1.37,11.45-2.3,17.17-.47,2.87-1,5.72-1.66,8.64-.17.73-.36,1.47-.58,2.23a14.67,14.67,0,0,1-1,2.59,3.35,3.35,0,0,1-.28.47,3.92,3.92,0,0,1-.53.66,3.62,3.62,0,0,1-1.48.92,3.33,3.33,0,0,1-2.95-.54,4,4,0,0,1-1.22-1.67,5.81,5.81,0,0,1-.3-.89,17.09,17.09,0,0,1-.44-2.55c-.59-6.1-.45-11.7-.55-17.47l0-17.21c0-5.72.12-11.45,0-17.06,0-1.4-.09-2.8-.2-4.14a16.58,16.58,0,0,0-.55-3.47c0-.11-.15-.25.13.09a3.1,3.1,0,0,0,.33.26,2.09,2.09,0,0,0,.85.29,2.52,2.52,0,0,0,1.62-.31,2.47,2.47,0,0,0,.55-.45c.25-.35.06-.1,0,.07s-.15.49-.23.78c-.29,1.18-.52,2.56-.71,3.92-1.43,11.09-2,22.6-2.71,34l-1.94,34.27c-.65,11.41-1.49,22.94-2.89,34.36-.7,5.71-1.5,11.42-2.57,17.13a80.41,80.41,0,0,1-2,8.62,17.48,17.48,0,0,1-.91,2.35,8.35,8.35,0,0,1-.44.75,3.36,3.36,0,0,1-1.31,1.14,2.62,2.62,0,0,1-2.07,0,2.84,2.84,0,0,1-1.11-.86,2.74,2.74,0,0,1-.4-.63,3.12,3.12,0,0,1-.2-.48,11.34,11.34,0,0,1-.54-2.61c-.09-.78-.15-1.53-.19-2.28-.29-5.91,0-11.64.18-17.35l.54-17.16,2.19-68.64,2.49-68.62c.53-11.43,1-22.86,1.18-34.29.11-5.72.14-11.44,0-17.15-.09-2.86-.24-5.71-.54-8.55a37.55,37.55,0,0,0-.65-4.23,12.09,12.09,0,0,0-.61-2c-.27-.63-.6-1.37-1.32-1.59.73.2,1.09.94,1.37,1.57a11.91,11.91,0,0,1,.68,2,37.88,37.88,0,0,1,.77,4.23c.39,2.84.61,5.7.79,8.56.33,5.72.46,11.44.51,17.17.07,11.46-.17,22.91-.45,34.35l-1,68.66L625.76,341l-.32,17.16c-.09,5.73-.31,11.45,0,17,0,.68.1,1.36.19,2a8.72,8.72,0,0,0,.31,1.58v0s0,0-.12-.18a1.9,1.9,0,0,0-.72-.51,2,2,0,0,0-1.55,0c-.56.3-.53.42-.54.4s.05-.08.09-.18a13.24,13.24,0,0,0,.61-1.66,79.51,79.51,0,0,0,1.77-8.11c1-5.56,1.69-11.2,2.3-16.85,1.25-11.32,1.92-22.64,2.43-34.08l1.77-34.3c.68-11.46,1.17-22.83,2.6-34.46a45.18,45.18,0,0,1,.82-4.52,11.87,11.87,0,0,1,.38-1.28,5.53,5.53,0,0,1,1-1.84,3.32,3.32,0,0,1,1-.81,3.24,3.24,0,0,1,2.12-.42,3.11,3.11,0,0,1,1.33.51,2.88,2.88,0,0,1,.74.6,5.38,5.38,0,0,1,1.17,1.94,21,21,0,0,1,.89,5c.13,1.51.19,3,.24,4.43.17,5.83.1,11.54.1,17.27l0,17.13c.11,5.66,0,11.53.58,16.82a11.88,11.88,0,0,0,.28,1.68c0,.08,0,.17,0,.13a1.91,1.91,0,0,0-.66-.77,2.7,2.7,0,0,0-2.45-.44,2.55,2.55,0,0,0-1,.61,2.68,2.68,0,0,0-.2.23v0a10.49,10.49,0,0,0,.5-1.44c.18-.6.34-1.26.49-1.92.61-2.65,1.1-5.44,1.54-8.22.88-5.58,1.6-11.22,2.19-16.86.29-2.82.55-5.65.77-8.46l.28-4.23c.1-1.49.2-3,.42-4.51a20.09,20.09,0,0,1,1.22-5,7.07,7.07,0,0,1,1.06-1.71,5,5,0,0,1,1.2-1,4.17,4.17,0,0,1,2-.54,3.61,3.61,0,0,1,1,.11,4.35,4.35,0,0,1,.82.28,5.66,5.66,0,0,1,1.08.66,5.37,5.37,0,0,1,.72.65,6.78,6.78,0,0,1,.54.61,21.06,21.06,0,0,1,2.57,4.37c.65,1.42,1.2,2.82,1.71,4.26l.37,1.1.17.57a1.68,1.68,0,0,0-.33-.66c.06-1.65-5.44-1.27-4.87-.12-.49.78-.26.51-.31.52l.08-.32.18-.89c.22-1.3.39-2.7.56-4.09.32-2.79.6-5.62.86-8.45l1.4-17.06,2.57-34.24c.47-5.73,1-11.45,1.64-17.19.33-2.86.68-5.73,1.1-8.61a73,73,0,0,1,1.71-8.84c.11-.4.25-.81.42-1.27a6,6,0,0,1,1.07-1.87,3.88,3.88,0,0,1,1.16-.89,3.44,3.44,0,0,1,2.68-.11,3.5,3.5,0,0,1,1.44,1,4.42,4.42,0,0,1,.48.7,7.93,7.93,0,0,1,.67,1.67,27.44,27.44,0,0,1,.72,4.82c.18,3,.32,5.87.36,8.76.14,5.76.15,11.5.15,17.23,0,11.47-.13,22.92-.28,34.38q-.49,34.35-1.41,68.68l-.49,17.17-.28,8.6c-.1,2.85-.19,5.6-.09,8.37a39.45,39.45,0,0,0,.92,7.95,11.72,11.72,0,0,0,.53,1.64,3.41,3.41,0,0,0,.46.83,1.17,1.17,0,0,0-.64-.18,1,1,0,0,0-.61.15,3.65,3.65,0,0,0,.53-.78c2-4.14,1.71-10.16,2-15.83l2.94-68.6c.13-2.85.21-5.73.47-8.66a31.61,31.61,0,0,1,.67-4.56,5.62,5.62,0,0,1,.59-1.54,2.76,2.76,0,0,1,.61-.7,2.23,2.23,0,0,1,2-.41,2.27,2.27,0,0,1,1.12.75,2.59,2.59,0,0,1,.36.52,9.53,9.53,0,0,1,.87,2.56,108.55,108.55,0,0,1,1.64,17.43c.45,11.56-.65,23.06-.58,34.35,0,.7,0,1.4.06,2.08a11.43,11.43,0,0,0,.19,1.7s0,0-.22-.31c-.21-.58-1.89-.37-1.86-.07-.28.31-.11.14-.1.07a7.77,7.77,0,0,0,.29-.83c.19-.63.36-1.31.52-2,.62-2.73,1.13-5.54,1.63-8.34,1-5.62,1.86-11.26,2.73-16.92s1.81-11.33,3.19-17a26.35,26.35,0,0,1,1.38-4.26,4,4,0,0,1,.77-1.19,1.48,1.48,0,0,1,1.43-.4,1.68,1.68,0,0,1,.93.78,7.83,7.83,0,0,1,.75,2.35,67.89,67.89,0,0,1,.77,8.68c.28,5.75,0,11.49.29,17.16a41.47,41.47,0,0,0,.38,4.2,7.18,7.18,0,0,0,.48,1.87c.06.12.13.18.09.15s-.22,0-.13,0a2.38,2.38,0,0,0,.46-.67,42.54,42.54,0,0,0,2.45-8.05c.68-2.78,1.12-5.58,1.86-8.4a11.58,11.58,0,0,1,1.79-4,2,2,0,0,1,2.19-.74,4.14,4.14,0,0,1,1.71,1.48,28.35,28.35,0,0,1,3.5,7.88A58.53,58.53,0,0,1,716.21,279.6Z"/><polygon class="cls-6" points="279.77 499.71 281.07 560.08 313.19 533.21 279.77 499.71"/><path class="cls-6" d="M213.42,514.45l29,3.56a4.31,4.31,0,0,1,3.77,4.27v6.11a4.29,4.29,0,0,1-4.79,4.27l-29-3.34a4.3,4.3,0,0,1-3.81-4.27v-6.33A4.3,4.3,0,0,1,213.42,514.45Z"/><path class="cls-6" d="M342.8,530l26.52,3.27a3.55,3.55,0,0,1,3.12,3.52v6.16a3.54,3.54,0,0,1-3.88,3.53L342,544a3.55,3.55,0,0,1-3.22-3.54v-6.95A3.56,3.56,0,0,1,342.8,530Z"/><path class="cls-6" d="M373.51,480.78a5.6,5.6,0,0,1-.69,0L196,459.06a5.62,5.62,0,0,1,1.37-11.15l176.87,21.67a5.62,5.62,0,0,1-.68,11.2Z"/></g></g></svg>