<svg xmlns="http://www.w3.org/2000/svg" xmlns:xlink="http://www.w3.org/1999/xlink" viewBox="0 0 18.63 18.63"><defs><style>.cls-1{fill:url(#linear-gradient);}.cls-2{stroke:#000;stroke-miterlimit:10;stroke-width:0.25px;}</style><linearGradient id="linear-gradient" y1="9.32" x2="18.63" y2="9.32" gradientUnits="userSpaceOnUse"><stop offset="0.01" stop-color="#52a839"/><stop offset="0.97" stop-color="#52904c"/></linearGradient></defs><title>ic 4</title><g id="Layer_2" data-name="Layer 2"><g id="OBJECTS"><rect class="cls-1" width="18.63" height="18.63" rx="2.53"/><path class="cls-2" d="M12.38,4.62a.28.28,0,0,0-.38,0A.26.26,0,0,0,12,5a6.41,6.41,0,0,1,0,8.67.26.26,0,0,0,0,.37.24.24,0,0,0,.18.07.27.27,0,0,0,.19-.08,6.94,6.94,0,0,0,0-9.39Z"/><path class="cls-2" d="M11.09,5.66a.26.26,0,0,0-.37,0,.27.27,0,0,0,0,.37,5,5,0,0,1,0,6.6.26.26,0,0,0,.19.44.26.26,0,0,0,.2-.08,5.51,5.51,0,0,0,0-7.32Z"/><path class="cls-2" d="M8.12,5.79a.28.28,0,0,0-.28,0L5.27,7.75H4A.26.26,0,0,0,3.78,8v2.64a.26.26,0,0,0,.26.27H5.27l2.57,1.93A.33.33,0,0,0,8,12.9a.27.27,0,0,0,.12,0,.25.25,0,0,0,.15-.23V6A.28.28,0,0,0,8.12,5.79Zm-.38,6.32L5.52,10.44a.3.3,0,0,0-.16,0H4.3V8.28H5.36a.25.25,0,0,0,.16-.06L7.74,6.56Z"/><path class="cls-2" d="M9.74,6.7a.27.27,0,1,0-.39.36,3.33,3.33,0,0,1,.9,2.28,3.41,3.41,0,0,1-.88,2.26.26.26,0,0,0,0,.37.24.24,0,0,0,.18.07A.25.25,0,0,0,9.76,12a3.9,3.9,0,0,0,1-2.61A3.86,3.86,0,0,0,9.74,6.7Z"/></g></g></svg>