<svg xmlns="http://www.w3.org/2000/svg" viewBox="0 0 168 158.61"><title>icon 1</title><g id="Layer_2" data-name="Layer 2"><g id="ICONS"><path d="M120.49,107a83.46,83.46,0,0,1-9-2.62c-2.72-1.22-3.72-6.31-3.56-11.22,3.91-4.62,6.92-11.61,9.15-21.26a15.2,15.2,0,0,0,4.71-5.34c2.7-4.7,4.83-12.2,3.11-17.58a13.75,13.75,0,0,0-5-7c0-2.57,0-6.83-.1-10.27-.43-15.9-9-23.6-16.16-27.26a45.29,45.29,0,0,0-39.24,0C57.24,8.13,48.65,15.83,48.22,31.73c-.09,3.44-.1,7.7-.09,10.27a13.76,13.76,0,0,0-5,7c-1.72,5.38.41,12.88,3.11,17.58a15.2,15.2,0,0,0,4.71,5.34c2.23,9.65,5.24,16.64,9.14,21.26.17,4.91-.83,10-3.55,11.22a83.46,83.46,0,0,1-9,2.62C29.74,111.6,0,119.34,0,138.67v15.94a4,4,0,0,0,8,0V138.67c0-13.15,27-20.18,41.53-24a79.4,79.4,0,0,0,10.28-3.06c8.51-3.82,8.55-15.58,8.18-20.46a4,4,0,0,0-1.11-2.47C63.26,85,60.47,78.28,58.33,68.25a4,4,0,0,0-3-3.06c-.57-.27-2.21-2-3.56-5.63s-1.5-6.73-1-8.17A5.93,5.93,0,0,1,53.66,48a3.8,3.8,0,0,0,2.47-3.73c0-.07-.05-7.22.09-12.28C56.82,9.75,77.5,8,84,8h.12c6.43,0,27.11,1.75,27.71,23.94.14,5.06.09,12.21.09,12.28A3.79,3.79,0,0,0,114.34,48a5.93,5.93,0,0,1,2.92,3.44c.46,1.44.32,4.53-1,8.17s-3,5.36-3.56,5.63a4,4,0,0,0-3,3.06c-2.14,10-4.93,16.73-8.55,20.47A4,4,0,0,0,100,91.19c-.37,4.88-.33,16.64,8.18,20.46a79.4,79.4,0,0,0,10.28,3.06c14.52,3.78,41.53,10.81,41.53,24v15.94a4,4,0,0,0,8,0V138.67C168,119.34,138.26,111.6,120.49,107Z"/></g></g></svg>