<svg xmlns="http://www.w3.org/2000/svg" xmlns:xlink="http://www.w3.org/1999/xlink" viewBox="0 0 9.08 10.16"><defs><style>.cls-1{fill:url(#linear-gradient);}.cls-2{fill:url(#linear-gradient-2);}.cls-3{fill:url(#linear-gradient-3);}</style><linearGradient id="linear-gradient" y1="7.44" x2="1.57" y2="7.44" gradientUnits="userSpaceOnUse"><stop offset="0.01" stop-color="#52ac35"/><stop offset="0.97" stop-color="#52904c"/></linearGradient><linearGradient id="linear-gradient-2" x1="3.76" y1="5.08" x2="5.33" y2="5.08" xlink:href="#linear-gradient"/><linearGradient id="linear-gradient-3" x1="7.52" y1="5.86" x2="9.08" y2="5.86" xlink:href="#linear-gradient"/></defs><title>W</title><g id="Layer_2" data-name="Layer 2"><g id="OBJECTS"><path class="cls-1" d="M.78,10.16A.78.78,0,0,1,0,9.38V5.5a.79.79,0,1,1,1.57,0V9.38A.78.78,0,0,1,.78,10.16Z"/><path class="cls-2" d="M4.54,10.16a.78.78,0,0,1-.78-.78V.78a.79.79,0,0,1,1.57,0v8.6A.78.78,0,0,1,4.54,10.16Z"/><path class="cls-3" d="M8.3,10.16a.78.78,0,0,1-.78-.78v-7a.78.78,0,1,1,1.56,0v7A.78.78,0,0,1,8.3,10.16Z"/></g></g></svg>