<svg xmlns="http://www.w3.org/2000/svg" xmlns:xlink="http://www.w3.org/1999/xlink" viewBox="0 0 148.9 43.92"><defs><style>.cls-1{fill:url(#linear-gradient);}.cls-2{fill:url(#linear-gradient-2);}.cls-3{fill:url(#linear-gradient-3);}.cls-4{fill:url(#linear-gradient-4);}.cls-5{fill:url(#linear-gradient-5);}.cls-6{fill:url(#linear-gradient-6);}.cls-7{fill:url(#linear-gradient-7);}.cls-8{fill:url(#linear-gradient-8);}.cls-9{fill:url(#linear-gradient-9);}.cls-10{fill:url(#linear-gradient-10);}.cls-11{fill:url(#linear-gradient-11);}.cls-12{fill:url(#linear-gradient-12);}.cls-13{fill:url(#linear-gradient-13);}.cls-14{fill:url(#linear-gradient-14);}.cls-15{fill:url(#linear-gradient-15);}.cls-16{fill:url(#linear-gradient-16);}.cls-17{fill:url(#linear-gradient-17);}.cls-18{fill:url(#linear-gradient-18);}.cls-19{fill:url(#linear-gradient-19);}.cls-20{fill:url(#linear-gradient-20);}.cls-21{fill:url(#linear-gradient-21);}.cls-22{fill:url(#linear-gradient-22);}.cls-23{fill:url(#linear-gradient-23);}.cls-24{fill:url(#linear-gradient-24);}.cls-25{fill:url(#linear-gradient-25);}.cls-26{fill:url(#linear-gradient-26);}.cls-27{fill:url(#linear-gradient-27);}.cls-28{fill:url(#linear-gradient-28);}.cls-29{fill:url(#linear-gradient-29);}.cls-30{fill:url(#linear-gradient-30);}.cls-31{fill:url(#linear-gradient-31);}.cls-32{fill:url(#linear-gradient-32);}.cls-33{fill:url(#linear-gradient-33);}.cls-34{fill:url(#linear-gradient-34);}.cls-35{fill:url(#linear-gradient-35);}.cls-36{fill:url(#linear-gradient-36);}.cls-37{fill:url(#linear-gradient-37);}.cls-38{fill:url(#linear-gradient-38);}.cls-39{fill:url(#linear-gradient-39);}.cls-40{fill:url(#linear-gradient-40);}.cls-41{fill:url(#linear-gradient-41);}.cls-42{fill:url(#linear-gradient-42);}.cls-43{fill:url(#linear-gradient-43);}.cls-44{fill:url(#linear-gradient-44);}.cls-45{fill:url(#linear-gradient-45);}.cls-46{fill:url(#linear-gradient-46);}.cls-47{fill:url(#linear-gradient-47);}.cls-48{fill:url(#linear-gradient-48);}.cls-49{fill:url(#linear-gradient-49);}.cls-50{fill:url(#linear-gradient-50);}.cls-51{fill:url(#linear-gradient-51);}.cls-52{fill:url(#linear-gradient-52);}.cls-53{fill:url(#linear-gradient-53);}.cls-54{fill:#3f3e3e;}</style><linearGradient id="linear-gradient" x1="-1.36" y1="18.26" x2="149.41" y2="18.26" gradientUnits="userSpaceOnUse"><stop offset="0.01" stop-color="#f5d23f" stop-opacity="0"/><stop offset="0.52" stop-color="#52904c"/><stop offset="1" stop-color="#f5d23f" stop-opacity="0"/></linearGradient><linearGradient id="linear-gradient-2" x1="-1.36" y1="15.71" x2="149.41" y2="15.71" xlink:href="#linear-gradient"/><linearGradient id="linear-gradient-3" x1="-1.36" y1="15.71" x2="149.41" y2="15.71" xlink:href="#linear-gradient"/><linearGradient id="linear-gradient-4" x1="-1.36" y1="18.26" x2="149.41" y2="18.26" xlink:href="#linear-gradient"/><linearGradient id="linear-gradient-5" x1="-1.36" y1="19.28" x2="149.41" y2="19.28" xlink:href="#linear-gradient"/><linearGradient id="linear-gradient-6" x1="-1.36" y1="16.48" x2="149.43" y2="16.48" xlink:href="#linear-gradient"/><linearGradient id="linear-gradient-7" x1="-1.36" y1="15.46" x2="149.41" y2="15.46" xlink:href="#linear-gradient"/><linearGradient id="linear-gradient-8" x1="-1.36" y1="13.68" x2="149.41" y2="13.68" xlink:href="#linear-gradient"/><linearGradient id="linear-gradient-9" x1="-1.36" y1="11.38" x2="149.41" y2="11.38" xlink:href="#linear-gradient"/><linearGradient id="linear-gradient-10" x1="-1.35" y1="12.4" x2="149.41" y2="12.4" xlink:href="#linear-gradient"/><linearGradient id="linear-gradient-11" x1="-1.36" y1="15.71" x2="149.43" y2="15.71" xlink:href="#linear-gradient"/><linearGradient id="linear-gradient-12" x1="-1.36" y1="18.26" x2="149.43" y2="18.26" xlink:href="#linear-gradient"/><linearGradient id="linear-gradient-13" x1="-1.36" y1="19.03" x2="149.43" y2="19.03" xlink:href="#linear-gradient"/><linearGradient id="linear-gradient-14" x1="-1.35" y1="16.48" x2="149.41" y2="16.48" xlink:href="#linear-gradient"/><linearGradient id="linear-gradient-15" x1="-1.35" y1="15.71" x2="149.41" y2="15.71" xlink:href="#linear-gradient"/><linearGradient id="linear-gradient-16" x1="-1.35" y1="16.99" x2="149.41" y2="16.99" xlink:href="#linear-gradient"/><linearGradient id="linear-gradient-17" x1="-1.35" y1="12.66" x2="149.41" y2="12.66" xlink:href="#linear-gradient"/><linearGradient id="linear-gradient-18" x1="-1.35" y1="15.71" x2="149.41" y2="15.71" xlink:href="#linear-gradient"/><linearGradient id="linear-gradient-19" x1="-1.35" y1="10.62" x2="149.41" y2="10.62" xlink:href="#linear-gradient"/><linearGradient id="linear-gradient-20" x1="-1.35" y1="18.26" x2="149.41" y2="18.26" xlink:href="#linear-gradient"/><linearGradient id="linear-gradient-21" x1="-1.35" y1="16.99" x2="149.41" y2="16.99" xlink:href="#linear-gradient"/><linearGradient id="linear-gradient-22" x1="-1.35" y1="15.71" x2="149.41" y2="15.71" xlink:href="#linear-gradient"/><linearGradient id="linear-gradient-23" x1="-1.35" y1="14.19" x2="149.41" y2="14.19" xlink:href="#linear-gradient"/><linearGradient id="linear-gradient-24" x1="-1.37" y1="13.17" x2="149.43" y2="13.17" xlink:href="#linear-gradient"/><linearGradient id="linear-gradient-25" x1="-1.36" y1="11.89" x2="149.42" y2="11.89" xlink:href="#linear-gradient"/><linearGradient id="linear-gradient-26" x1="-1.35" y1="15.71" x2="149.41" y2="15.71" xlink:href="#linear-gradient"/><linearGradient id="linear-gradient-27" x1="-1.35" y1="12.4" x2="149.41" y2="12.4" xlink:href="#linear-gradient"/><linearGradient id="linear-gradient-28" x1="-1.36" y1="18.26" x2="149.41" y2="18.26" xlink:href="#linear-gradient"/><linearGradient id="linear-gradient-29" x1="-1.35" y1="16.22" x2="149.41" y2="16.22" xlink:href="#linear-gradient"/><linearGradient id="linear-gradient-30" x1="-1.35" y1="14.44" x2="149.41" y2="14.44" xlink:href="#linear-gradient"/><linearGradient id="linear-gradient-31" x1="-1.35" y1="13.17" x2="149.41" y2="13.17" xlink:href="#linear-gradient"/><linearGradient id="linear-gradient-32" x1="-1.35" y1="15.71" x2="149.41" y2="15.71" xlink:href="#linear-gradient"/><linearGradient id="linear-gradient-33" x1="-1.35" y1="11.13" x2="149.41" y2="11.13" xlink:href="#linear-gradient"/><linearGradient id="linear-gradient-34" x1="-1.35" y1="12.4" x2="149.41" y2="12.4" xlink:href="#linear-gradient"/><linearGradient id="linear-gradient-35" x1="-1.35" y1="13.93" x2="149.41" y2="13.93" xlink:href="#linear-gradient"/><linearGradient id="linear-gradient-36" x1="-1.37" y1="15.71" x2="149.42" y2="15.71" xlink:href="#linear-gradient"/><linearGradient id="linear-gradient-37" x1="-1.37" y1="14.7" x2="149.42" y2="14.7" xlink:href="#linear-gradient"/><linearGradient id="linear-gradient-38" x1="-1.35" y1="13.17" x2="149.41" y2="13.17" xlink:href="#linear-gradient"/><linearGradient id="linear-gradient-39" x1="-1.35" y1="12.4" x2="149.41" y2="12.4" xlink:href="#linear-gradient"/><linearGradient id="linear-gradient-40" x1="-1.35" y1="11.38" x2="149.41" y2="11.38" xlink:href="#linear-gradient"/><linearGradient id="linear-gradient-41" x1="-1.35" y1="14.19" x2="149.41" y2="14.19" xlink:href="#linear-gradient"/><linearGradient id="linear-gradient-42" x1="-1.37" y1="16.73" x2="149.42" y2="16.73" xlink:href="#linear-gradient"/><linearGradient id="linear-gradient-43" x1="-1.37" y1="15.71" x2="149.42" y2="15.71" xlink:href="#linear-gradient"/><linearGradient id="linear-gradient-44" x1="-1.35" y1="14.7" x2="149.41" y2="14.7" xlink:href="#linear-gradient"/><linearGradient id="linear-gradient-45" x1="-1.35" y1="13.68" x2="149.41" y2="13.68" xlink:href="#linear-gradient"/><linearGradient id="linear-gradient-46" x1="-1.35" y1="12.4" x2="149.41" y2="12.4" xlink:href="#linear-gradient"/><linearGradient id="linear-gradient-47" x1="-1.35" y1="18.01" x2="149.41" y2="18.01" xlink:href="#linear-gradient"/><linearGradient id="linear-gradient-48" x1="-1.35" y1="16.48" x2="149.41" y2="16.48" xlink:href="#linear-gradient"/><linearGradient id="linear-gradient-49" x1="-1.35" y1="15.46" x2="149.41" y2="15.46" xlink:href="#linear-gradient"/><linearGradient id="linear-gradient-50" x1="-1.35" y1="14.19" x2="149.41" y2="14.19" xlink:href="#linear-gradient"/><linearGradient id="linear-gradient-51" x1="-1.35" y1="18.26" x2="149.41" y2="18.26" xlink:href="#linear-gradient"/><linearGradient id="linear-gradient-52" x1="-1.35" y1="15.71" x2="149.41" y2="15.71" xlink:href="#linear-gradient"/><linearGradient id="linear-gradient-53" x1="-1.35" y1="14.7" x2="149.41" y2="14.7" xlink:href="#linear-gradient"/></defs><title>wv</title><g id="Layer_2" data-name="Layer 2"><g id="OBJECTS"><path class="cls-1" d="M.29,21.23A.27.27,0,0,1,0,21V15.55a.27.27,0,0,1,.29-.25.26.26,0,0,1,.28.25V21A.26.26,0,0,1,.29,21.23Z"/><path class="cls-2" d="M3.14,21.23A.27.27,0,0,1,2.85,21V10.45a.27.27,0,0,1,.29-.25.27.27,0,0,1,.29.25V21A.27.27,0,0,1,3.14,21.23Z"/><path class="cls-3" d="M6,21.23A.27.27,0,0,1,5.7,21V10.45a.29.29,0,0,1,.58,0V21A.27.27,0,0,1,6,21.23Z"/><path class="cls-4" d="M8.84,21.23A.27.27,0,0,1,8.56,21V15.55a.27.27,0,0,1,.28-.25.27.27,0,0,1,.29.25V21A.27.27,0,0,1,8.84,21.23Z"/><path class="cls-5" d="M11.7,21.23a.27.27,0,0,1-.29-.25V17.59a.27.27,0,0,1,.29-.25.26.26,0,0,1,.28.25V21A.26.26,0,0,1,11.7,21.23Z"/><path class="cls-6" d="M14.55,21.23a.27.27,0,0,1-.29-.25V12a.29.29,0,0,1,.58,0v9A.27.27,0,0,1,14.55,21.23Z"/><path class="cls-7" d="M17.4,21.23a.27.27,0,0,1-.29-.25v-11a.29.29,0,0,1,.58,0V21A.27.27,0,0,1,17.4,21.23Z"/><path class="cls-8" d="M20.25,21.23A.27.27,0,0,1,20,21V6.37a.27.27,0,0,1,.28-.25.27.27,0,0,1,.29.25V21A.27.27,0,0,1,20.25,21.23Z"/><path class="cls-9" d="M23.11,21.23a.27.27,0,0,1-.29-.25V1.78a.27.27,0,0,1,.29-.25.26.26,0,0,1,.28.25V21A.26.26,0,0,1,23.11,21.23Z"/><path class="cls-10" d="M26,21.23a.27.27,0,0,1-.29-.25V3.82a.29.29,0,0,1,.58,0V21A.27.27,0,0,1,26,21.23Z"/><path class="cls-11" d="M28.81,21.23a.27.27,0,0,1-.29-.25V10.45a.29.29,0,0,1,.58,0V21A.27.27,0,0,1,28.81,21.23Z"/><path class="cls-12" d="M31.66,21.23a.26.26,0,0,1-.28-.25V15.55a.26.26,0,0,1,.28-.25.27.27,0,0,1,.29.25V21A.27.27,0,0,1,31.66,21.23Z"/><path class="cls-13" d="M34.52,21.23a.27.27,0,0,1-.29-.25v-3.9a.27.27,0,0,1,.29-.25.27.27,0,0,1,.28.25V21A.27.27,0,0,1,34.52,21.23Z"/><path class="cls-14" d="M37.37,21.23a.27.27,0,0,1-.29-.25V12a.29.29,0,0,1,.58,0v9A.27.27,0,0,1,37.37,21.23Z"/><path class="cls-15" d="M40.22,21.23a.27.27,0,0,1-.29-.25V10.45a.29.29,0,0,1,.58,0V21A.27.27,0,0,1,40.22,21.23Z"/><path class="cls-16" d="M43.07,21.23a.26.26,0,0,1-.28-.25V13a.26.26,0,0,1,.28-.25.27.27,0,0,1,.29.25v8A.27.27,0,0,1,43.07,21.23Z"/><path class="cls-17" d="M45.93,21.23a.27.27,0,0,1-.29-.25V4.33a.27.27,0,0,1,.29-.25.27.27,0,0,1,.28.25V21A.27.27,0,0,1,45.93,21.23Z"/><path class="cls-18" d="M48.78,21.23a.27.27,0,0,1-.29-.25V10.45a.29.29,0,0,1,.58,0V21A.27.27,0,0,1,48.78,21.23Z"/><path class="cls-19" d="M51.63,21.23a.27.27,0,0,1-.29-.25V.25a.29.29,0,0,1,.58,0V21A.27.27,0,0,1,51.63,21.23Z"/><path class="cls-20" d="M54.48,21.23A.26.26,0,0,1,54.2,21V15.55a.26.26,0,0,1,.28-.25.27.27,0,0,1,.29.25V21A.27.27,0,0,1,54.48,21.23Z"/><path class="cls-21" d="M57.34,21.23a.27.27,0,0,1-.29-.25V13a.27.27,0,0,1,.29-.25.27.27,0,0,1,.28.25v8A.27.27,0,0,1,57.34,21.23Z"/><path class="cls-22" d="M60.19,21.23A.27.27,0,0,1,59.9,21V10.45a.29.29,0,0,1,.58,0V21A.27.27,0,0,1,60.19,21.23Z"/><path class="cls-23" d="M63,21.23a.27.27,0,0,1-.29-.25V7.39a.29.29,0,0,1,.58,0V21A.27.27,0,0,1,63,21.23Z"/><path class="cls-24" d="M65.89,21.23a.26.26,0,0,1-.28-.25V5.35a.26.26,0,0,1,.28-.25.27.27,0,0,1,.29.25V21A.27.27,0,0,1,65.89,21.23Z"/><path class="cls-25" d="M68.75,21.23a.27.27,0,0,1-.29-.25V2.8a.27.27,0,0,1,.29-.25A.27.27,0,0,1,69,2.8V21A.27.27,0,0,1,68.75,21.23Z"/><path class="cls-26" d="M71.6,21.23a.27.27,0,0,1-.29-.25V10.45a.29.29,0,0,1,.58,0V21A.27.27,0,0,1,71.6,21.23Z"/><path class="cls-27" d="M74.45,21.23a.27.27,0,0,1-.29-.25V3.82a.29.29,0,0,1,.58,0V21A.27.27,0,0,1,74.45,21.23Z"/><path class="cls-28" d="M77.3,21.23A.27.27,0,0,1,77,21V15.55a.29.29,0,0,1,.58,0V21A.27.27,0,0,1,77.3,21.23Z"/><path class="cls-29" d="M80.16,21.23a.27.27,0,0,1-.29-.25V11.47a.27.27,0,0,1,.29-.25.27.27,0,0,1,.28.25V21A.27.27,0,0,1,80.16,21.23Z"/><path class="cls-30" d="M83,21.23a.27.27,0,0,1-.29-.25V7.9A.27.27,0,0,1,83,7.65a.26.26,0,0,1,.28.25V21A.26.26,0,0,1,83,21.23Z"/><path class="cls-31" d="M85.86,21.23a.27.27,0,0,1-.29-.25V5.35a.29.29,0,0,1,.58,0V21A.27.27,0,0,1,85.86,21.23Z"/><path class="cls-32" d="M88.71,21.23a.27.27,0,0,1-.29-.25V10.45a.29.29,0,0,1,.58,0V21A.27.27,0,0,1,88.71,21.23Z"/><path class="cls-33" d="M91.56,21.23a.27.27,0,0,1-.28-.25V1.27A.27.27,0,0,1,91.56,1a.27.27,0,0,1,.29.25V21A.27.27,0,0,1,91.56,21.23Z"/><path class="cls-34" d="M94.42,21.23a.27.27,0,0,1-.29-.25V3.82a.27.27,0,0,1,.29-.25.26.26,0,0,1,.28.25V21A.26.26,0,0,1,94.42,21.23Z"/><path class="cls-35" d="M97.27,21.23A.27.27,0,0,1,97,21V6.88a.29.29,0,0,1,.58,0V21A.27.27,0,0,1,97.27,21.23Z"/><path class="cls-36" d="M100.12,21.23a.27.27,0,0,1-.29-.25V10.45a.29.29,0,0,1,.58,0V21A.27.27,0,0,1,100.12,21.23Z"/><path class="cls-37" d="M103,21.23a.27.27,0,0,1-.28-.25V8.41a.27.27,0,0,1,.28-.25.27.27,0,0,1,.29.25V21A.27.27,0,0,1,103,21.23Z"/><path class="cls-38" d="M105.83,21.23a.27.27,0,0,1-.29-.25V5.35a.27.27,0,0,1,.29-.25.26.26,0,0,1,.28.25V21A.26.26,0,0,1,105.83,21.23Z"/><path class="cls-39" d="M108.68,21.23a.27.27,0,0,1-.29-.25V3.82a.29.29,0,0,1,.58,0V21A.27.27,0,0,1,108.68,21.23Z"/><path class="cls-40" d="M111.53,21.23a.27.27,0,0,1-.29-.25V1.78a.29.29,0,0,1,.58,0V21A.27.27,0,0,1,111.53,21.23Z"/><path class="cls-41" d="M114.38,21.23a.27.27,0,0,1-.28-.25V7.39a.27.27,0,0,1,.28-.25.27.27,0,0,1,.29.25V21A.27.27,0,0,1,114.38,21.23Z"/><path class="cls-42" d="M117.24,21.23A.27.27,0,0,1,117,21V12.49a.27.27,0,0,1,.29-.25.26.26,0,0,1,.28.25V21A.26.26,0,0,1,117.24,21.23Z"/><path class="cls-43" d="M120.09,21.23a.27.27,0,0,1-.29-.25V10.45a.29.29,0,0,1,.58,0V21A.27.27,0,0,1,120.09,21.23Z"/><path class="cls-44" d="M122.94,21.23a.27.27,0,0,1-.29-.25V8.41a.29.29,0,0,1,.58,0V21A.27.27,0,0,1,122.94,21.23Z"/><path class="cls-45" d="M125.79,21.23a.26.26,0,0,1-.28-.25V6.37a.26.26,0,0,1,.28-.25.27.27,0,0,1,.29.25V21A.27.27,0,0,1,125.79,21.23Z"/><path class="cls-46" d="M128.65,21.23a.27.27,0,0,1-.29-.25V3.82a.27.27,0,0,1,.29-.25.26.26,0,0,1,.28.25V21A.26.26,0,0,1,128.65,21.23Z"/><path class="cls-47" d="M131.5,21.23a.27.27,0,0,1-.29-.25V15a.29.29,0,0,1,.58,0V21A.27.27,0,0,1,131.5,21.23Z"/><path class="cls-48" d="M134.35,21.23a.27.27,0,0,1-.29-.25V12a.29.29,0,0,1,.58,0v9A.27.27,0,0,1,134.35,21.23Z"/><path class="cls-49" d="M137.2,21.23a.26.26,0,0,1-.28-.25v-11a.26.26,0,0,1,.28-.25.27.27,0,0,1,.29.25V21A.27.27,0,0,1,137.2,21.23Z"/><path class="cls-50" d="M140.06,21.23a.27.27,0,0,1-.29-.25V7.39a.27.27,0,0,1,.29-.25.27.27,0,0,1,.28.25V21A.27.27,0,0,1,140.06,21.23Z"/><path class="cls-51" d="M142.91,21.23a.27.27,0,0,1-.29-.25V15.55a.29.29,0,0,1,.58,0V21A.27.27,0,0,1,142.91,21.23Z"/><path class="cls-52" d="M145.76,21.23a.27.27,0,0,1-.29-.25V10.45a.29.29,0,0,1,.58,0V21A.27.27,0,0,1,145.76,21.23Z"/><path class="cls-53" d="M148.61,21.23a.26.26,0,0,1-.28-.25V8.41a.26.26,0,0,1,.28-.25.27.27,0,0,1,.29.25V21A.27.27,0,0,1,148.61,21.23Z"/><path class="cls-54" d="M.29,22.69a.27.27,0,0,0-.29.25v5.43a.27.27,0,0,0,.29.25.26.26,0,0,0,.28-.25V22.94A.26.26,0,0,0,.29,22.69Z"/><path class="cls-54" d="M3.14,22.69a.27.27,0,0,0-.29.25V33.47a.27.27,0,0,0,.29.25.27.27,0,0,0,.29-.25V22.94A.27.27,0,0,0,3.14,22.69Z"/><path class="cls-54" d="M6,22.69a.27.27,0,0,0-.29.25V33.47a.29.29,0,0,0,.58,0V22.94A.27.27,0,0,0,6,22.69Z"/><path class="cls-54" d="M8.84,22.69a.27.27,0,0,0-.28.25v5.43a.27.27,0,0,0,.28.25.27.27,0,0,0,.29-.25V22.94A.27.27,0,0,0,8.84,22.69Z"/><path class="cls-54" d="M11.7,22.69a.27.27,0,0,0-.29.25v3.39a.27.27,0,0,0,.29.25.26.26,0,0,0,.28-.25V22.94A.26.26,0,0,0,11.7,22.69Z"/><path class="cls-54" d="M14.55,22.69a.27.27,0,0,0-.29.25v9a.29.29,0,0,0,.58,0v-9A.27.27,0,0,0,14.55,22.69Z"/><path class="cls-54" d="M17.4,22.69a.27.27,0,0,0-.29.25V34a.29.29,0,0,0,.58,0v-11A.27.27,0,0,0,17.4,22.69Z"/><path class="cls-54" d="M20.25,22.69a.27.27,0,0,0-.28.25V37.55a.27.27,0,0,0,.28.25.27.27,0,0,0,.29-.25V22.94A.27.27,0,0,0,20.25,22.69Z"/><path class="cls-54" d="M23.11,22.69a.27.27,0,0,0-.29.25v19.2a.27.27,0,0,0,.29.25.26.26,0,0,0,.28-.25V22.94A.26.26,0,0,0,23.11,22.69Z"/><path class="cls-54" d="M26,22.69a.27.27,0,0,0-.29.25V40.1a.29.29,0,0,0,.58,0V22.94A.27.27,0,0,0,26,22.69Z"/><path class="cls-54" d="M28.81,22.69a.27.27,0,0,0-.29.25V33.47a.29.29,0,0,0,.58,0V22.94A.27.27,0,0,0,28.81,22.69Z"/><path class="cls-54" d="M31.66,22.69a.26.26,0,0,0-.28.25v5.43a.26.26,0,0,0,.28.25.27.27,0,0,0,.29-.25V22.94A.27.27,0,0,0,31.66,22.69Z"/><path class="cls-54" d="M34.52,22.69a.27.27,0,0,0-.29.25v3.9a.27.27,0,0,0,.29.25.27.27,0,0,0,.28-.25v-3.9A.27.27,0,0,0,34.52,22.69Z"/><path class="cls-54" d="M37.37,22.69a.27.27,0,0,0-.29.25v9a.29.29,0,0,0,.58,0v-9A.27.27,0,0,0,37.37,22.69Z"/><path class="cls-54" d="M40.22,22.69a.27.27,0,0,0-.29.25V33.47a.29.29,0,0,0,.58,0V22.94A.27.27,0,0,0,40.22,22.69Z"/><path class="cls-54" d="M43.07,22.69a.26.26,0,0,0-.28.25v8a.26.26,0,0,0,.28.25.27.27,0,0,0,.29-.25v-8A.27.27,0,0,0,43.07,22.69Z"/><path class="cls-54" d="M45.93,22.69a.27.27,0,0,0-.29.25V39.59a.27.27,0,0,0,.29.25.27.27,0,0,0,.28-.25V22.94A.27.27,0,0,0,45.93,22.69Z"/><path class="cls-54" d="M48.78,22.69a.27.27,0,0,0-.29.25V33.47a.29.29,0,0,0,.58,0V22.94A.27.27,0,0,0,48.78,22.69Z"/><path class="cls-54" d="M51.63,22.69a.27.27,0,0,0-.29.25V43.67a.29.29,0,0,0,.58,0V22.94A.27.27,0,0,0,51.63,22.69Z"/><path class="cls-54" d="M54.48,22.69a.26.26,0,0,0-.28.25v5.43a.26.26,0,0,0,.28.25.27.27,0,0,0,.29-.25V22.94A.27.27,0,0,0,54.48,22.69Z"/><path class="cls-54" d="M57.34,22.69a.27.27,0,0,0-.29.25v8a.27.27,0,0,0,.29.25.27.27,0,0,0,.28-.25v-8A.27.27,0,0,0,57.34,22.69Z"/><path class="cls-54" d="M60.19,22.69a.27.27,0,0,0-.29.25V33.47a.29.29,0,0,0,.58,0V22.94A.27.27,0,0,0,60.19,22.69Z"/><path class="cls-54" d="M63,22.69a.27.27,0,0,0-.29.25V36.53a.29.29,0,0,0,.58,0V22.94A.27.27,0,0,0,63,22.69Z"/><path class="cls-54" d="M65.89,22.69a.26.26,0,0,0-.28.25V38.57a.26.26,0,0,0,.28.25.27.27,0,0,0,.29-.25V22.94A.27.27,0,0,0,65.89,22.69Z"/><path class="cls-54" d="M68.75,22.69a.27.27,0,0,0-.29.25V41.12a.27.27,0,0,0,.29.25.27.27,0,0,0,.28-.25V22.94A.27.27,0,0,0,68.75,22.69Z"/><path class="cls-54" d="M71.6,22.69a.27.27,0,0,0-.29.25V33.47a.29.29,0,0,0,.58,0V22.94A.27.27,0,0,0,71.6,22.69Z"/><path class="cls-54" d="M74.45,22.69a.27.27,0,0,0-.29.25V40.1a.29.29,0,0,0,.58,0V22.94A.27.27,0,0,0,74.45,22.69Z"/><path class="cls-54" d="M77.3,22.69a.27.27,0,0,0-.29.25v5.43a.29.29,0,0,0,.58,0V22.94A.27.27,0,0,0,77.3,22.69Z"/><path class="cls-54" d="M80.16,22.69a.27.27,0,0,0-.29.25v9.51a.27.27,0,0,0,.29.25.27.27,0,0,0,.28-.25V22.94A.27.27,0,0,0,80.16,22.69Z"/><path class="cls-54" d="M83,22.69a.27.27,0,0,0-.29.25V36a.27.27,0,0,0,.29.25.26.26,0,0,0,.28-.25V22.94A.26.26,0,0,0,83,22.69Z"/><path class="cls-54" d="M85.86,22.69a.27.27,0,0,0-.29.25V38.57a.29.29,0,0,0,.58,0V22.94A.27.27,0,0,0,85.86,22.69Z"/><path class="cls-54" d="M88.71,22.69a.27.27,0,0,0-.29.25V33.47a.29.29,0,0,0,.58,0V22.94A.27.27,0,0,0,88.71,22.69Z"/><path class="cls-54" d="M91.56,22.69a.27.27,0,0,0-.28.25V42.65a.27.27,0,0,0,.28.25.27.27,0,0,0,.29-.25V22.94A.27.27,0,0,0,91.56,22.69Z"/><path class="cls-54" d="M94.42,22.69a.27.27,0,0,0-.29.25V40.1a.27.27,0,0,0,.29.25.26.26,0,0,0,.28-.25V22.94A.26.26,0,0,0,94.42,22.69Z"/><path class="cls-54" d="M97.27,22.69a.27.27,0,0,0-.29.25V37a.29.29,0,0,0,.58,0V22.94A.27.27,0,0,0,97.27,22.69Z"/><path class="cls-54" d="M100.12,22.69a.27.27,0,0,0-.29.25V33.47a.29.29,0,0,0,.58,0V22.94A.27.27,0,0,0,100.12,22.69Z"/><path class="cls-54" d="M103,22.69a.27.27,0,0,0-.28.25V35.51a.27.27,0,0,0,.28.25.27.27,0,0,0,.29-.25V22.94A.27.27,0,0,0,103,22.69Z"/><path class="cls-54" d="M105.83,22.69a.27.27,0,0,0-.29.25V38.57a.27.27,0,0,0,.29.25.26.26,0,0,0,.28-.25V22.94A.26.26,0,0,0,105.83,22.69Z"/><path class="cls-54" d="M108.68,22.69a.27.27,0,0,0-.29.25V40.1a.29.29,0,0,0,.58,0V22.94A.27.27,0,0,0,108.68,22.69Z"/><path class="cls-54" d="M111.53,22.69a.27.27,0,0,0-.29.25v19.2a.29.29,0,0,0,.58,0V22.94A.27.27,0,0,0,111.53,22.69Z"/><path class="cls-54" d="M114.38,22.69a.27.27,0,0,0-.28.25V36.53a.27.27,0,0,0,.28.25.27.27,0,0,0,.29-.25V22.94A.27.27,0,0,0,114.38,22.69Z"/><path class="cls-54" d="M117.24,22.69a.27.27,0,0,0-.29.25v8.49a.27.27,0,0,0,.29.25.26.26,0,0,0,.28-.25V22.94A.26.26,0,0,0,117.24,22.69Z"/><path class="cls-54" d="M120.09,22.69a.27.27,0,0,0-.29.25V33.47a.29.29,0,0,0,.58,0V22.94A.27.27,0,0,0,120.09,22.69Z"/><path class="cls-54" d="M122.94,22.69a.27.27,0,0,0-.29.25V35.51a.29.29,0,0,0,.58,0V22.94A.27.27,0,0,0,122.94,22.69Z"/><path class="cls-54" d="M125.79,22.69a.26.26,0,0,0-.28.25V37.55a.26.26,0,0,0,.28.25.27.27,0,0,0,.29-.25V22.94A.27.27,0,0,0,125.79,22.69Z"/><path class="cls-54" d="M128.65,22.69a.27.27,0,0,0-.29.25V40.1a.27.27,0,0,0,.29.25.26.26,0,0,0,.28-.25V22.94A.26.26,0,0,0,128.65,22.69Z"/><path class="cls-54" d="M131.5,22.69a.27.27,0,0,0-.29.25v5.94a.29.29,0,0,0,.58,0V22.94A.27.27,0,0,0,131.5,22.69Z"/><path class="cls-54" d="M134.35,22.69a.27.27,0,0,0-.29.25v9a.29.29,0,0,0,.58,0v-9A.27.27,0,0,0,134.35,22.69Z"/><path class="cls-54" d="M137.2,22.69a.26.26,0,0,0-.28.25V34a.26.26,0,0,0,.28.25.27.27,0,0,0,.29-.25v-11A.27.27,0,0,0,137.2,22.69Z"/><path class="cls-54" d="M140.06,22.69a.27.27,0,0,0-.29.25V36.53a.27.27,0,0,0,.29.25.27.27,0,0,0,.28-.25V22.94A.27.27,0,0,0,140.06,22.69Z"/><path class="cls-54" d="M142.91,22.69a.27.27,0,0,0-.29.25v5.43a.29.29,0,0,0,.58,0V22.94A.27.27,0,0,0,142.91,22.69Z"/><path class="cls-54" d="M145.76,22.69a.27.27,0,0,0-.29.25V33.47a.29.29,0,0,0,.58,0V22.94A.27.27,0,0,0,145.76,22.69Z"/><path class="cls-54" d="M148.61,22.69a.26.26,0,0,0-.28.25V35.51a.26.26,0,0,0,.28.25.27.27,0,0,0,.29-.25V22.94A.27.27,0,0,0,148.61,22.69Z"/></g></g></svg>